<svg width="63" height="13" viewBox="0 0 63 13" fill="none" xmlns="http://www.w3.org/2000/svg">
<path fill-rule="evenodd" clip-rule="evenodd" d="M4.97865 12.6355V10.5438H2.45439V0.363551H0V12.6355H4.97865ZM10.7731 11.886C11.2569 11.3119 11.4988 10.467 11.4988 9.35139V0.363551H9.11358V9.25432C9.1139 9.45233 9.10342 9.65022 9.08219 9.84709C9.06998 10.0124 9.01598 10.1719 8.92524 10.3107C8.87703 10.3724 8.81411 10.421 8.74224 10.452C8.67038 10.4831 8.59187 10.4956 8.51391 10.4885C8.43663 10.4951 8.35894 10.4819 8.28818 10.4502C8.21741 10.4184 8.15591 10.3692 8.10947 10.307C8.01922 10.1677 7.96417 10.0086 7.94907 9.84328C7.92531 9.6478 7.91368 9.45104 7.91423 9.25413V0.363362H5.52951V9.35121C5.52951 10.4668 5.77144 11.3117 6.25529 11.8858C6.73914 12.4599 7.49226 12.7469 8.51463 12.7469C9.53677 12.7471 10.2896 12.4601 10.7731 11.886ZM14.8374 12.6355V6.49963L16.0647 12.6355H18.4639V0.363551H16.0925V6.24234L14.963 0.363551H12.4395V12.6355H14.8381H14.8374ZM21.6011 12.6355L21.7544 10.6554H23.2327L23.407 12.6355H25.7295L24.5659 0.363551H20.4025L19.2171 12.6355H21.6018H21.6011ZM22.396 2.45542H22.5074L23.0445 8.69601H21.9295L22.396 2.45542ZM28.9643 12.6355V7.03652C29.2073 7.01986 29.4505 7.0642 29.6719 7.16553C29.8184 7.25153 29.8916 7.4735 29.8915 7.83142V12.6355H32.311V7.99218C32.327 7.5854 32.247 7.18058 32.0775 6.81044C31.9969 6.65744 31.8813 6.52563 31.7401 6.42566C31.599 6.3257 31.4363 6.26041 31.2652 6.23508C31.4768 6.17703 31.6727 6.07239 31.8386 5.92882C32.0045 5.78525 32.1361 5.60639 32.2239 5.40534C32.4127 4.8925 32.499 4.34762 32.478 3.80156C32.4862 3.19441 32.4315 2.58804 32.3147 1.99219C32.2353 1.53312 32.009 1.11225 31.6698 0.792842C31.349 0.506886 30.8749 0.363972 30.2473 0.364093H26.4827V12.6361H28.965L28.9643 12.6355ZM28.9783 2.63668H29.55C29.634 2.62794 29.7187 2.6445 29.7933 2.68423C29.8678 2.72396 29.9288 2.78505 29.9684 2.85967C30.0426 3.00858 30.0798 3.32235 30.08 3.801C30.08 4.54021 29.9103 4.90981 29.5709 4.90981H28.9783V2.63668ZM45.1168 11.7675C45.5421 11.1143 45.7548 10.2113 45.7548 9.05853C45.7669 8.56513 45.6938 8.07334 45.5387 7.60481C45.4056 7.22764 45.2126 6.87443 44.967 6.55878C44.7273 6.25609 44.4666 5.97069 44.1868 5.70472L42.7715 4.34498C42.5479 4.14975 42.3614 3.91588 42.2206 3.65458C42.1341 3.48102 42.0865 3.29067 42.0813 3.09682C42.0748 2.94449 42.123 2.79486 42.2172 2.67496C42.3277 2.57368 42.471 2.51551 42.6209 2.51105C42.7708 2.50658 42.9173 2.55613 43.0337 2.65065C43.0831 2.7024 43.1213 2.76379 43.1459 2.83098C43.1705 2.89816 43.181 2.9697 43.1767 3.04112V3.88484H45.673C45.673 2.66226 45.4371 1.75111 44.9653 1.15138C44.4936 0.551644 43.6952 0.251832 42.5703 0.251953C41.6497 0.251953 40.9466 0.526175 40.461 1.07462C39.9753 1.62307 39.7324 2.42033 39.7323 3.46642C39.7323 4.46581 40.1436 5.35368 40.9661 6.13002L42.0678 7.17587C42.3404 7.42663 42.5955 7.69573 42.8314 7.9813C43.0066 8.19559 43.1381 8.44217 43.2184 8.70707C43.2995 9.0153 43.3371 9.33338 43.33 9.65204C43.347 9.87364 43.3023 10.0956 43.201 10.2934C43.1469 10.363 43.0758 10.4175 42.9946 10.4517C42.9134 10.4859 42.8247 10.4986 42.7372 10.4887C42.647 10.4966 42.5564 10.478 42.4766 10.4353C42.3967 10.3926 42.3311 10.3275 42.2876 10.2481C42.1914 10.0398 42.1472 9.81131 42.1586 9.58218V8.04825H39.731V9.2476C39.731 10.4654 39.9786 11.3533 40.4737 11.9112C40.9688 12.4691 41.7764 12.748 42.8967 12.7478C43.952 12.7474 44.6923 12.4206 45.1176 11.7675H45.1168ZM48.7887 12.6355V3.79411L50.2809 12.6355H52.4844L53.8927 3.79411V12.6355H56.1381V0.363551H52.3657L51.3407 7.84521L50.3089 0.363551H46.5711V12.6355H48.7887ZM62.3607 11.7675C62.786 11.1143 62.9987 10.2113 62.9987 9.05853C63.0109 8.56513 62.9378 8.07334 62.7826 7.60481C62.6495 7.22764 62.4565 6.87443 62.2109 6.55878C61.9712 6.25609 61.7105 5.97069 61.4307 5.70472L60.0154 4.34498C59.7919 4.14975 59.6053 3.91588 59.4645 3.65458C59.378 3.48102 59.3305 3.29067 59.3252 3.09682C59.3187 2.94449 59.3669 2.79486 59.4611 2.67496C59.5716 2.57368 59.7149 2.51551 59.8648 2.51105C60.0147 2.50658 60.1612 2.55613 60.2776 2.65065C60.327 2.7024 60.3652 2.76379 60.3898 2.83098C60.4144 2.89816 60.4249 2.9697 60.4206 3.04112V3.88484H62.9169C62.9169 2.66226 62.681 1.75111 62.2092 1.15138C61.7375 0.551644 60.9391 0.251832 59.8142 0.251953C58.8938 0.251953 58.1907 0.526175 57.7049 1.07462C57.2191 1.62307 56.9762 2.42033 56.9762 3.46642C56.9762 4.46581 57.3875 5.35368 58.21 6.13002L59.3118 7.17587C59.5843 7.42663 59.8394 7.69573 60.0753 7.9813C60.2505 8.19559 60.382 8.44217 60.4623 8.70707C60.5434 9.0153 60.581 9.33338 60.5739 9.65204C60.5909 9.87364 60.5462 10.0956 60.4449 10.2934C60.3908 10.363 60.3197 10.4175 60.2385 10.4517C60.1573 10.4859 60.0687 10.4986 59.9811 10.4887C59.8909 10.4966 59.8003 10.478 59.7205 10.4353C59.6406 10.3926 59.575 10.3275 59.5315 10.2481C59.4353 10.0398 59.3911 9.81131 59.4025 9.58218V8.04825H56.9748V9.2476C56.9748 10.4654 57.2223 11.3533 57.7174 11.9112C58.2125 12.4691 59.0202 12.748 60.1404 12.7478C61.1957 12.7474 61.9358 12.4206 62.3607 11.7675Z" fill="#13A541"/>
</svg>
