<svg width="56" height="56" viewBox="0 0 56 56" fill="none" xmlns="http://www.w3.org/2000/svg">
<rect x="0.5" y="0.5" width="55" height="55" rx="27.5" stroke="#13A541"/>
<g clip-path="url(#clip0_712_4381)">
<path d="M33.46 21C33.4 21.89 33.25 22.76 33.01 23.59L34.21 24.79C34.62 23.59 34.88 22.32 34.97 21H33.46ZM23.6 33.02C22.75 33.26 21.88 33.41 21 33.47V34.96C22.32 34.87 23.59 34.61 24.8 34.21L23.6 33.02ZM32.5 19H36C36.55 19 37 19.45 37 20C37 29.39 29.39 37 20 37C19.45 37 19 36.55 19 36V32.51C19 31.96 19.45 31.51 20 31.51C21.24 31.51 22.45 31.31 23.57 30.94C23.67 30.9 23.78 30.89 23.88 30.89C24.14 30.89 24.39 30.99 24.59 31.18L26.79 33.38C29.62 31.93 31.94 29.62 33.38 26.79L31.18 24.59C30.9 24.31 30.82 23.92 30.93 23.57C31.3 22.45 31.5 21.25 31.5 20C31.5 19.45 31.95 19 32.5 19Z" fill="#13A541"/>
</g>
<defs>
<clipPath id="clip0_712_4381">
<rect width="24" height="24" fill="white" transform="translate(16 16)"/>
</clipPath>
</defs>
</svg>
