<svg width="291" height="162" viewBox="0 0 291 162" fill="none" xmlns="http://www.w3.org/2000/svg">
<g clip-path="url(#clip0_1315_20017)">
<path d="M44.472 43.9809L50.9395 46.1074V36.7957H45.0715L44.472 43.9809Z" fill="#EFA4A7"/>
<path d="M50.1378 39.3722C53.697 39.3722 56.5823 36.4869 56.5823 32.9277C56.5823 29.3685 53.697 26.4832 50.1378 26.4832C46.5786 26.4832 43.6932 29.3685 43.6932 32.9277C43.6932 36.4869 46.5786 39.3722 50.1378 39.3722Z" fill="#EFA4A7"/>
<path d="M48.3701 32.2902C49.4506 32.2558 50.1569 31.1678 50.5769 30.1713C50.9968 29.1748 51.4282 28.0333 52.4285 27.621C53.2456 27.285 54.6887 29.5566 55.3377 28.9496C56.0097 28.3196 55.353 25.0821 54.6391 24.498C53.9251 23.9138 52.9478 23.8031 52.0277 23.7611C49.7828 23.658 47.5226 23.8375 45.3197 24.2994C43.9567 24.582 42.5556 25.0096 41.5744 25.9946C40.3297 27.243 40.0129 29.129 39.9212 30.8891C39.8296 32.6911 39.9327 34.5771 40.8108 36.1539C41.6889 37.7307 43.5215 38.8951 45.2777 38.4904C45.4533 37.5359 45.2777 36.5548 45.2051 35.585C45.1364 34.6153 45.2051 33.5692 45.8007 32.7942C46.3963 32.0191 47.6562 31.7175 48.3472 32.4009" fill="#36344E"/>
<path d="M40.4403 34.5241C39.7951 34.0507 39.0239 33.6575 38.2298 33.7529C37.3708 33.856 36.6492 34.5623 36.4278 35.3984C36.2063 36.2345 36.4545 37.1546 36.9852 37.838C37.5158 38.5214 38.3023 38.9719 39.1384 39.1972C39.6195 39.327 40.1502 39.3804 40.6083 39.1857C41.2879 38.8956 41.6506 38.0289 41.3872 37.3379" fill="#36344E"/>
<path d="M52.6651 147.582H46.6062V156.176H52.6651V147.582Z" fill="#EFA4A7"/>
<path d="M58.5675 161.381C59.2051 161.381 59.7702 161.365 60.1978 161.327C61.8089 161.178 63.3437 159.991 64.1149 159.296C64.4623 158.983 64.573 158.487 64.3936 158.059C64.2638 157.75 64.0042 157.521 63.6835 157.429L59.4304 156.215L52.543 151.569L52.4666 151.706C52.4361 151.756 51.7603 152.974 51.535 153.798C51.4472 154.111 51.4701 154.371 51.6038 154.573C51.6954 154.715 51.8214 154.795 51.9244 154.841C51.7985 154.97 51.409 155.234 50.2064 155.428C48.4502 155.707 48.0799 153.886 48.0646 153.81L48.0531 153.749L47.9997 153.714C47.1636 153.176 46.6482 152.932 46.4725 152.985C46.3618 153.019 46.1748 153.073 45.6784 158.032C45.6288 158.189 45.2776 159.33 45.5181 160.418C45.7777 161.606 50.9624 161.197 51.997 161.102C52.0275 161.102 55.9103 161.381 58.5675 161.381Z" fill="#36344E"/>
<path d="M29.3567 140.827L24.809 148.119L29.95 151.325L34.4978 144.033L29.3567 140.827Z" fill="#EFA4A7"/>
<path d="M36.1834 160.2C36.8935 160.2 37.5463 160.116 38.0121 160.032C38.4703 159.952 38.8291 159.59 38.9017 159.128C38.9551 158.799 38.8559 158.467 38.6344 158.219L35.6679 154.939L32.2853 147.353L32.1479 147.43C32.0944 147.456 30.8765 148.132 30.2504 148.712C30.0099 148.934 29.8915 149.167 29.8954 149.407C29.8954 149.575 29.9603 149.709 30.0252 149.804C29.8495 149.85 29.3799 149.865 28.2575 149.392C26.6196 148.701 27.2687 146.96 27.2992 146.888L27.3221 146.83L27.2954 146.773C26.8716 145.872 26.5662 145.395 26.3867 145.345C26.276 145.315 26.0889 145.265 23.0423 149.205C22.9163 149.308 22.0153 150.095 21.6411 151.144C21.2326 152.29 25.8484 154.684 26.7762 155.153C26.8029 155.176 31.6363 158.689 33.6178 159.685C34.4042 160.082 35.3358 160.204 36.1834 160.204L36.1834 160.2Z" fill="#36344E"/>
<path d="M42.147 75.7036H59.1098L60.6484 91.4828L53.9137 149.785H45.2548L48.7176 116.112L34.6717 146.513L26.9749 141.126L37.9436 112.744C37.9436 112.744 34.0264 88.02 37.1036 81.8618C40.1808 75.7036 42.147 75.7036 42.147 75.7036Z" fill="#36344E"/>
<path d="M33.7094 76.6653H60.6482L52.5658 41.835H40.8297L33.7094 76.6653Z" fill="#13A541"/>
<path d="M67.3373 41.1515C67.7687 39.0326 66.9784 37.0969 65.5811 36.8296C64.1799 36.5624 62.6986 38.0628 62.2672 40.1817C62.0839 41.0255 62.1107 41.8998 62.3512 42.7359L60.6484 51.7346L65.0504 52.4294L66.2607 43.4842C66.8066 42.8008 67.177 42.0028 67.3373 41.1515Z" fill="#EFA4A7"/>
<path d="M41.1163 41.835H51.4665L58.4455 55.7892L61.076 45.3321L66.8601 45.9468C66.8601 45.9468 65.4933 66.38 59.5107 65.6889C53.5281 64.9979 39.5815 46.5882 41.1163 41.835Z" fill="#13A541"/>
<path d="M29.5556 94.911C29.1242 97.0299 29.9145 98.9656 31.3119 99.2328C32.713 99.5001 34.1943 97.9997 34.6257 95.8808C34.809 95.037 34.7823 94.1627 34.5418 93.3266L36.2445 84.3279L31.8425 83.6331L30.6323 92.5783C30.0863 93.2617 29.716 94.0596 29.5556 94.911Z" fill="#EFA4A7"/>
<path d="M47.0149 41.8349C47.0149 41.8349 41.1315 41.5867 40.8261 41.8349C39.2226 43.1482 29.804 90.4515 29.804 90.4515H35.7674L47.011 41.8349H47.0149Z" fill="#13A541"/>
<path d="M95.3204 161.39C95.3204 161.642 95.1181 161.844 94.8661 161.844H0.454325C0.202358 161.844 0 161.642 0 161.39C0 161.138 0.202358 160.936 0.454325 160.936H94.8661C95.1181 160.936 95.3204 161.138 95.3204 161.39Z" fill="#484565"/>
<path d="M146.494 20.4253H67.4646V42.9507H146.494V20.4253Z" fill="#D5D5D5"/>
<path d="M74.5276 25.1975H86.4993" stroke="black" stroke-width="0.763571" stroke-miterlimit="10"/>
<path d="M74.5276 31.688H139.049" stroke="black" stroke-width="0.763571" stroke-miterlimit="10"/>
<path d="M158.213 31.688H174.04" stroke="black" stroke-width="0.763571" stroke-miterlimit="10"/>
<path d="M74.5276 36.9778H102.639" stroke="black" stroke-width="0.763571" stroke-miterlimit="10"/>
<path d="M74.5276 69.8665H116.333" stroke="black" stroke-width="0.763571" stroke-miterlimit="10"/>
<path d="M74.5276 76.3569H109.843" stroke="black" stroke-width="0.763571" stroke-miterlimit="10"/>
<path d="M74.5276 81.6467H102.639" stroke="black" stroke-width="0.763571" stroke-miterlimit="10"/>
<path d="M74.5276 47.9915H113.005" stroke="black" stroke-width="0.763571" stroke-miterlimit="10"/>
<path d="M74.5276 53.4988H139.049" stroke="black" stroke-width="0.763571" stroke-miterlimit="10"/>
<path d="M74.5276 59.6538H102.639" stroke="black" stroke-width="0.763571" stroke-miterlimit="10"/>
<path d="M149.358 -0.000244141V111.099" stroke="black" stroke-width="0.763571" stroke-miterlimit="10"/>
<path d="M158.213 44.0959H267.857" stroke="black" stroke-width="0.763571" stroke-miterlimit="10"/>
<path d="M158.213 50.9785H222.279" stroke="black" stroke-width="0.763571" stroke-miterlimit="10"/>
<path d="M158.213 56.6948H231.683" stroke="black" stroke-width="0.763571" stroke-miterlimit="10"/>
<path d="M158.213 63.0361H291" stroke="black" stroke-width="0.763571" stroke-miterlimit="10"/>
</g>
<defs>
<clipPath id="clip0_1315_20017">
<rect width="291" height="161.844" fill="white"/>
</clipPath>
</defs>
</svg>
