<svg width="152" height="52" viewBox="0 0 152 52" fill="none" xmlns="http://www.w3.org/2000/svg">
  <rect width="152" height="52" rx="6" fill="#050500" />
  <path
    d="M34.2451 27.0207C34.2354 25.2287 35.0459 23.8762 36.6865 22.8801C35.7686 21.5666 34.3818 20.8439 32.5508 20.7023C30.8174 20.5656 28.9229 21.7131 28.2295 21.7131C27.4971 21.7131 25.8174 20.7512 24.499 20.7512C21.7744 20.7951 18.8789 22.924 18.8789 27.2551C18.8789 28.5344 19.1133 29.856 19.582 31.2199C20.207 33.0119 22.4629 37.4064 24.8164 37.3332C26.0469 37.3039 26.916 36.4592 28.5176 36.4592C30.0703 36.4592 30.876 37.3332 32.248 37.3332C34.6211 37.299 36.6621 33.3049 37.2578 31.508C34.0742 30.009 34.2451 27.1135 34.2451 27.0207ZM31.4814 19.0031C32.8145 17.4211 32.6924 15.9807 32.6533 15.4631C31.4766 15.5314 30.1143 16.2639 29.3379 17.1672C28.4834 18.134 27.9805 19.3303 28.0879 20.6779C29.3623 20.7756 30.5244 20.1213 31.4814 19.0031Z"
    fill="white" />
  <path
    d="M53.0813 18.9006H51.1978V13.0824H53.141C53.7111 13.0824 54.2006 13.1989 54.6097 13.4318C55.0188 13.6629 55.3323 13.9953 55.5501 14.429C55.7698 14.8608 55.8796 15.3788 55.8796 15.983C55.8796 16.589 55.7688 17.1099 55.5472 17.5455C55.3275 17.9811 55.0094 18.3163 54.5927 18.5511C54.176 18.7841 53.6722 18.9006 53.0813 18.9006ZM52.0756 18.1335H53.033C53.4762 18.1335 53.8446 18.0502 54.1381 17.8835C54.4317 17.715 54.6514 17.4716 54.7972 17.1534C54.9431 16.8333 55.016 16.4432 55.016 15.983C55.016 15.5265 54.9431 15.1392 54.7972 14.821C54.6533 14.5028 54.4383 14.2614 54.1523 14.0966C53.8664 13.9318 53.5112 13.8494 53.087 13.8494H52.0756V18.1335ZM58.7411 18.9886C58.332 18.9886 57.975 18.8949 57.6701 18.7074C57.3652 18.5199 57.1284 18.2576 56.9599 17.9205C56.7913 17.5833 56.707 17.1894 56.707 16.7386C56.707 16.286 56.7913 15.8902 56.9599 15.5511C57.1284 15.2121 57.3652 14.9489 57.6701 14.7614C57.975 14.5739 58.332 14.4801 58.7411 14.4801C59.1502 14.4801 59.5072 14.5739 59.8121 14.7614C60.1171 14.9489 60.3538 15.2121 60.5224 15.5511C60.6909 15.8902 60.7752 16.286 60.7752 16.7386C60.7752 17.1894 60.6909 17.5833 60.5224 17.9205C60.3538 18.2576 60.1171 18.5199 59.8121 18.7074C59.5072 18.8949 59.1502 18.9886 58.7411 18.9886ZM58.744 18.2756C59.0091 18.2756 59.2288 18.2055 59.4031 18.0653C59.5773 17.9252 59.7061 17.7386 59.7894 17.5057C59.8746 17.2727 59.9173 17.0161 59.9173 16.7358C59.9173 16.4574 59.8746 16.2017 59.7894 15.9688C59.7061 15.7339 59.5773 15.5455 59.4031 15.4034C59.2288 15.2614 59.0091 15.1903 58.744 15.1903C58.4769 15.1903 58.2553 15.2614 58.0792 15.4034C57.9049 15.5455 57.7752 15.7339 57.69 15.9688C57.6067 16.2017 57.565 16.4574 57.565 16.7358C57.565 17.0161 57.6067 17.2727 57.69 17.5057C57.7752 17.7386 57.9049 17.9252 58.0792 18.0653C58.2553 18.2055 58.4769 18.2756 58.744 18.2756ZM62.5366 18.9006L61.2525 14.5369H62.1303L62.9854 17.7415H63.0281L63.886 14.5369H64.7638L65.6161 17.7273H65.6587L66.5082 14.5369H67.386L66.1048 18.9006H65.2383L64.3519 15.75H64.2866L63.4002 18.9006H62.5366ZM69.0415 16.3097V18.9006H68.1921V14.5369H69.0075V15.2472H69.0614C69.1618 15.0161 69.319 14.8305 69.533 14.6903C69.7489 14.5502 70.0207 14.4801 70.3484 14.4801C70.6457 14.4801 70.9061 14.5426 71.1296 14.6676C71.3531 14.7907 71.5264 14.9744 71.6495 15.2188C71.7726 15.4631 71.8342 15.7652 71.8342 16.125V18.9006H70.9847V16.2273C70.9847 15.911 70.9023 15.6638 70.7376 15.4858C70.5728 15.3059 70.3465 15.2159 70.0586 15.2159C69.8616 15.2159 69.6864 15.2585 69.533 15.3438C69.3815 15.429 69.2612 15.554 69.1722 15.7188C69.0851 15.8816 69.0415 16.0786 69.0415 16.3097ZM73.8228 13.0824V18.9006H72.9734V13.0824H73.8228ZM76.8036 18.9886C76.3945 18.9886 76.0375 18.8949 75.7326 18.7074C75.4277 18.5199 75.1909 18.2576 75.0224 17.9205C74.8538 17.5833 74.7695 17.1894 74.7695 16.7386C74.7695 16.286 74.8538 15.8902 75.0224 15.5511C75.1909 15.2121 75.4277 14.9489 75.7326 14.7614C76.0375 14.5739 76.3945 14.4801 76.8036 14.4801C77.2127 14.4801 77.5697 14.5739 77.8746 14.7614C78.1796 14.9489 78.4163 15.2121 78.5849 15.5511C78.7534 15.8902 78.8377 16.286 78.8377 16.7386C78.8377 17.1894 78.7534 17.5833 78.5849 17.9205C78.4163 18.2576 78.1796 18.5199 77.8746 18.7074C77.5697 18.8949 77.2127 18.9886 76.8036 18.9886ZM76.8065 18.2756C77.0716 18.2756 77.2913 18.2055 77.4656 18.0653C77.6398 17.9252 77.7686 17.7386 77.8519 17.5057C77.9371 17.2727 77.9798 17.0161 77.9798 16.7358C77.9798 16.4574 77.9371 16.2017 77.8519 15.9688C77.7686 15.7339 77.6398 15.5455 77.4656 15.4034C77.2913 15.2614 77.0716 15.1903 76.8065 15.1903C76.5394 15.1903 76.3178 15.2614 76.1417 15.4034C75.9674 15.5455 75.8377 15.7339 75.7525 15.9688C75.6692 16.2017 75.6275 16.4574 75.6275 16.7358C75.6275 17.0161 75.6692 17.2727 75.7525 17.5057C75.8377 17.7386 75.9674 17.9252 76.1417 18.0653C76.3178 18.2055 76.5394 18.2756 76.8065 18.2756ZM81.0558 18.9972C80.7792 18.9972 80.5292 18.946 80.3058 18.8438C80.0823 18.7396 79.9052 18.589 79.7745 18.3921C79.6457 18.1951 79.5813 17.9536 79.5813 17.6676C79.5813 17.4214 79.6287 17.2188 79.7234 17.0597C79.8181 16.9006 79.9459 16.7746 80.1069 16.6818C80.2679 16.589 80.4478 16.5189 80.6467 16.4716C80.8455 16.4242 81.0482 16.3883 81.2546 16.3636C81.516 16.3333 81.7281 16.3087 81.891 16.2898C82.0539 16.2689 82.1722 16.2358 82.2461 16.1903C82.32 16.1449 82.3569 16.071 82.3569 15.9688V15.9489C82.3569 15.7008 82.2868 15.5085 82.1467 15.3722C82.0084 15.2358 81.802 15.1676 81.5273 15.1676C81.2414 15.1676 81.016 15.2311 80.8512 15.358C80.6883 15.483 80.5756 15.6222 80.5131 15.7756L79.7148 15.5938C79.8095 15.3286 79.9478 15.1146 80.1296 14.9517C80.3133 14.7869 80.5245 14.6676 80.7631 14.5938C81.0018 14.518 81.2527 14.4801 81.516 14.4801C81.6902 14.4801 81.8749 14.501 82.07 14.5426C82.2669 14.5824 82.4506 14.6563 82.6211 14.7642C82.7934 14.8722 82.9345 15.0265 83.0444 15.2273C83.1542 15.4261 83.2092 15.6847 83.2092 16.0028V18.9006H82.3796V18.304H82.3455C82.2906 18.4138 82.2082 18.5218 82.0984 18.6278C81.9885 18.7339 81.8474 18.822 81.6751 18.8921C81.5027 18.9621 81.2963 18.9972 81.0558 18.9972ZM81.2404 18.3153C81.4753 18.3153 81.676 18.2689 81.8427 18.1761C82.0112 18.0833 82.1391 17.9621 82.2262 17.8125C82.3152 17.661 82.3597 17.4991 82.3597 17.3267V16.7642C82.3294 16.7945 82.2707 16.8229 82.1836 16.8494C82.0984 16.8741 82.0008 16.8958 81.891 16.9148C81.7811 16.9318 81.6741 16.9479 81.57 16.9631C81.4658 16.9763 81.3787 16.9877 81.3086 16.9972C81.1438 17.018 80.9933 17.053 80.8569 17.1023C80.7224 17.1515 80.6145 17.2225 80.533 17.3153C80.4535 17.4063 80.4137 17.5275 80.4137 17.679C80.4137 17.8892 80.4914 18.0483 80.6467 18.1563C80.802 18.2623 80.9999 18.3153 81.2404 18.3153ZM85.9741 18.9858C85.6218 18.9858 85.3074 18.8958 85.0309 18.7159C84.7563 18.5341 84.5404 18.2756 84.3832 17.9403C84.2279 17.6032 84.1502 17.1989 84.1502 16.7273C84.1502 16.2557 84.2288 15.8523 84.386 15.5171C84.5451 15.1818 84.7629 14.9252 85.0394 14.7472C85.3159 14.5691 85.6294 14.4801 85.9798 14.4801C86.2506 14.4801 86.4684 14.5256 86.6332 14.6165C86.7998 14.7055 86.9286 14.8097 87.0195 14.929C87.1123 15.0483 87.1843 15.1534 87.2354 15.2443H87.2866V13.0824H88.136V18.9006H87.3065V18.2216H87.2354C87.1843 18.3144 87.1104 18.4205 87.0138 18.5398C86.9192 18.6591 86.7885 18.7633 86.6218 18.8523C86.4551 18.9413 86.2392 18.9858 85.9741 18.9858ZM86.1616 18.2614C86.4059 18.2614 86.6123 18.197 86.7809 18.0682C86.9513 17.9375 87.0801 17.7566 87.1673 17.5256C87.2563 17.2945 87.3008 17.0256 87.3008 16.7188C87.3008 16.4157 87.2572 16.1506 87.1701 15.9233C87.083 15.696 86.9551 15.5189 86.7866 15.3921C86.618 15.2652 86.4097 15.2017 86.1616 15.2017C85.9059 15.2017 85.6928 15.268 85.5224 15.4006C85.3519 15.5331 85.2231 15.714 85.136 15.9432C85.0508 16.1724 85.0082 16.4309 85.0082 16.7188C85.0082 17.0104 85.0517 17.2727 85.1388 17.5057C85.226 17.7386 85.3548 17.9233 85.5252 18.0597C85.6976 18.1941 85.9097 18.2614 86.1616 18.2614ZM93.3036 18.9886C92.8945 18.9886 92.5375 18.8949 92.2326 18.7074C91.9277 18.5199 91.6909 18.2576 91.5224 17.9205C91.3538 17.5833 91.2695 17.1894 91.2695 16.7386C91.2695 16.286 91.3538 15.8902 91.5224 15.5511C91.6909 15.2121 91.9277 14.9489 92.2326 14.7614C92.5375 14.5739 92.8945 14.4801 93.3036 14.4801C93.7127 14.4801 94.0697 14.5739 94.3746 14.7614C94.6796 14.9489 94.9163 15.2121 95.0849 15.5511C95.2534 15.8902 95.3377 16.286 95.3377 16.7386C95.3377 17.1894 95.2534 17.5833 95.0849 17.9205C94.9163 18.2576 94.6796 18.5199 94.3746 18.7074C94.0697 18.8949 93.7127 18.9886 93.3036 18.9886ZM93.3065 18.2756C93.5716 18.2756 93.7913 18.2055 93.9656 18.0653C94.1398 17.9252 94.2686 17.7386 94.3519 17.5057C94.4371 17.2727 94.4798 17.0161 94.4798 16.7358C94.4798 16.4574 94.4371 16.2017 94.3519 15.9688C94.2686 15.7339 94.1398 15.5455 93.9656 15.4034C93.7913 15.2614 93.5716 15.1903 93.3065 15.1903C93.0394 15.1903 92.8178 15.2614 92.6417 15.4034C92.4674 15.5455 92.3377 15.7339 92.2525 15.9688C92.1692 16.2017 92.1275 16.4574 92.1275 16.7358C92.1275 17.0161 92.1692 17.2727 92.2525 17.5057C92.3377 17.7386 92.4674 17.9252 92.6417 18.0653C92.8178 18.2055 93.0394 18.2756 93.3065 18.2756ZM97.1353 16.3097V18.9006H96.2859V14.5369H97.1012V15.2472H97.1552C97.2556 15.0161 97.4128 14.8305 97.6268 14.6903C97.8427 14.5502 98.1145 14.4801 98.4421 14.4801C98.7395 14.4801 98.9999 14.5426 99.2234 14.6676C99.4469 14.7907 99.6201 14.9744 99.7433 15.2188C99.8664 15.4631 99.9279 15.7652 99.9279 16.125V18.9006H99.0785V16.2273C99.0785 15.911 98.9961 15.6638 98.8313 15.4858C98.6665 15.3059 98.4402 15.2159 98.1523 15.2159C97.9554 15.2159 97.7802 15.2585 97.6268 15.3438C97.4753 15.429 97.355 15.554 97.266 15.7188C97.1789 15.8816 97.1353 16.0786 97.1353 16.3097ZM105.221 14.5369V15.2188H102.838V14.5369H105.221ZM103.477 13.4915H104.326V17.6193C104.326 17.7841 104.351 17.9081 104.4 17.9915C104.449 18.0729 104.513 18.1288 104.591 18.1591C104.67 18.1875 104.756 18.2017 104.849 18.2017C104.917 18.2017 104.977 18.197 105.028 18.1875C105.079 18.178 105.119 18.1705 105.147 18.1648L105.301 18.8665C105.252 18.8854 105.181 18.9044 105.091 18.9233C105 18.9441 104.886 18.9555 104.75 18.9574C104.526 18.9612 104.318 18.9214 104.125 18.8381C103.931 18.7547 103.775 18.626 103.656 18.4517C103.537 18.2775 103.477 18.0587 103.477 17.7955V13.4915ZM107.104 16.3097V18.9006H106.255V13.0824H107.093V15.2472H107.147C107.249 15.0123 107.405 14.8258 107.615 14.6875C107.826 14.5492 108.1 14.4801 108.439 14.4801C108.739 14.4801 109 14.5417 109.223 14.6648C109.449 14.7879 109.623 14.9716 109.746 15.2159C109.871 15.4583 109.934 15.7614 109.934 16.125V18.9006H109.084V16.2273C109.084 15.9072 109.002 15.6591 108.837 15.483C108.672 15.3049 108.443 15.2159 108.15 15.2159C107.949 15.2159 107.769 15.2585 107.61 15.3438C107.453 15.429 107.328 15.554 107.238 15.7188C107.149 15.8816 107.104 16.0786 107.104 16.3097ZM112.948 18.9886C112.518 18.9886 112.148 18.8968 111.837 18.7131C111.528 18.5275 111.29 18.2671 111.121 17.9318C110.954 17.5947 110.871 17.1998 110.871 16.7472C110.871 16.3002 110.954 15.9063 111.121 15.5653C111.29 15.2244 111.525 14.9583 111.826 14.7671C112.129 14.5758 112.483 14.4801 112.888 14.4801C113.134 14.4801 113.373 14.5208 113.604 14.6023C113.835 14.6837 114.042 14.8116 114.226 14.9858C114.41 15.16 114.555 15.3864 114.661 15.6648C114.767 15.9413 114.82 16.2775 114.82 16.6733V16.9744H111.351V16.3381H113.988C113.988 16.1146 113.942 15.9167 113.851 15.7443C113.76 15.5701 113.632 15.4328 113.468 15.3324C113.305 15.232 113.114 15.1818 112.894 15.1818C112.655 15.1818 112.447 15.2405 112.269 15.358C112.093 15.4735 111.956 15.625 111.86 15.8125C111.765 15.9981 111.718 16.1998 111.718 16.4176V16.9148C111.718 17.2064 111.769 17.4546 111.871 17.6591C111.975 17.8636 112.12 18.0199 112.306 18.1278C112.491 18.2339 112.708 18.2869 112.956 18.2869C113.117 18.2869 113.264 18.2642 113.397 18.2188C113.529 18.1714 113.644 18.1013 113.74 18.0085C113.837 17.9157 113.911 17.8011 113.962 17.6648L114.766 17.8097C114.702 18.0464 114.586 18.2538 114.419 18.4318C114.255 18.608 114.047 18.7453 113.797 18.8438C113.549 18.9403 113.266 18.9886 112.948 18.9886Z"
    fill="white" />
  <path
    d="M52.5373 37.9006H50.9066L54.5707 27.7188H56.3455L60.0096 37.9006H58.3789L55.5004 29.5682H55.4208L52.5373 37.9006ZM52.8107 33.9134H58.1005V35.206H52.8107V33.9134ZM61.3606 40.7642V30.2642H62.8123V31.5021H62.9366C63.0228 31.343 63.1471 31.1591 63.3095 30.9503C63.4719 30.7415 63.6973 30.5592 63.9856 30.4034C64.274 30.2443 64.6551 30.1648 65.1291 30.1648C65.7456 30.1648 66.2958 30.3206 66.7797 30.6321C67.2636 30.9437 67.6431 31.3928 67.9181 31.9794C68.1966 32.5661 68.3358 33.272 68.3358 34.0973C68.3358 34.9226 68.1982 35.6302 67.9231 36.2202C67.648 36.8068 67.2702 37.2592 66.7896 37.5774C66.309 37.8923 65.7605 38.0497 65.144 38.0497C64.68 38.0497 64.3005 37.9718 64.0055 37.8161C63.7138 37.6603 63.4851 37.478 63.3194 37.2692C63.1537 37.0604 63.0261 36.8748 62.9366 36.7124H62.8471V40.7642H61.3606ZM62.8173 34.0824C62.8173 34.6193 62.8952 35.09 63.051 35.4943C63.2067 35.8987 63.4321 36.2152 63.7271 36.4439C64.0221 36.6693 64.3833 36.782 64.8109 36.782C65.255 36.782 65.6262 36.6643 65.9245 36.429C66.2228 36.1903 66.4482 35.8672 66.6007 35.4595C66.7565 35.0519 66.8343 34.5928 66.8343 34.0824C66.8343 33.5786 66.7581 33.1262 66.6056 32.7251C66.4565 32.3241 66.2311 32.0076 65.9295 31.7756C65.6312 31.5436 65.2583 31.4276 64.8109 31.4276C64.38 31.4276 64.0154 31.5386 63.7172 31.7607C63.4222 31.9827 63.1984 32.2926 63.046 32.6903C62.8935 33.0881 62.8173 33.5521 62.8173 34.0824ZM70.0012 40.7642V30.2642H71.4529V31.5021H71.5772C71.6634 31.343 71.7877 31.1591 71.9501 30.9503C72.1125 30.7415 72.3379 30.5592 72.6262 30.4034C72.9146 30.2443 73.2958 30.1648 73.7697 30.1648C74.3862 30.1648 74.9364 30.3206 75.4203 30.6321C75.9042 30.9437 76.2837 31.3928 76.5588 31.9794C76.8372 32.5661 76.9764 33.272 76.9764 34.0973C76.9764 34.9226 76.8388 35.6302 76.5637 36.2202C76.2886 36.8068 75.9108 37.2592 75.4302 37.5774C74.9496 37.8923 74.4011 38.0497 73.7846 38.0497C73.3206 38.0497 72.9411 37.9718 72.6461 37.8161C72.3545 37.6603 72.1258 37.478 71.96 37.2692C71.7943 37.0604 71.6667 36.8748 71.5772 36.7124H71.4877V40.7642H70.0012ZM71.4579 34.0824C71.4579 34.6193 71.5358 35.09 71.6916 35.4943C71.8474 35.8987 72.0727 36.2152 72.3677 36.4439C72.6627 36.6693 73.024 36.782 73.4515 36.782C73.8957 36.782 74.2669 36.6643 74.5652 36.429C74.8635 36.1903 75.0888 35.8672 75.2413 35.4595C75.3971 35.0519 75.475 34.5928 75.475 34.0824C75.475 33.5786 75.3987 33.1262 75.2463 32.7251C75.0971 32.3241 74.8717 32.0076 74.5701 31.7756C74.2718 31.5436 73.899 31.4276 73.4515 31.4276C73.0207 31.4276 72.6561 31.5386 72.3578 31.7607C72.0628 31.9827 71.8391 32.2926 71.6866 32.6903C71.5342 33.0881 71.4579 33.5521 71.4579 34.0824ZM88.0195 30.3935C87.9665 29.9228 87.7478 29.5582 87.3633 29.2997C86.9788 29.0379 86.4949 28.907 85.9116 28.907C85.494 28.907 85.1327 28.9733 84.8278 29.1058C84.5228 29.2351 84.2859 29.4141 84.1168 29.6428C83.9511 29.8681 83.8683 30.125 83.8683 30.4134C83.8683 30.6553 83.9246 30.8641 84.0373 31.0398C84.1533 31.2154 84.3041 31.3629 84.4897 31.4822C84.6786 31.5983 84.8808 31.696 85.0962 31.7756C85.3117 31.8518 85.5188 31.9148 85.7177 31.9645L86.712 32.223C87.0368 32.3026 87.3699 32.4103 87.7113 32.5462C88.0527 32.6821 88.3692 32.861 88.6609 33.0831C88.9525 33.3052 89.1879 33.5803 89.3668 33.9084C89.5491 34.2365 89.6403 34.6293 89.6403 35.0867C89.6403 35.6634 89.4911 36.1754 89.1928 36.6229C88.8978 37.0703 88.4686 37.4233 87.9052 37.6818C87.3451 37.9403 86.6673 38.0696 85.8718 38.0696C85.1095 38.0696 84.4499 37.9486 83.8931 37.7067C83.3363 37.4647 82.9004 37.1217 82.5856 36.6776C82.2707 36.2301 82.0967 35.6998 82.0636 35.0867H83.6048C83.6346 35.4546 83.7539 35.7611 83.9627 36.0064C84.1748 36.2483 84.445 36.429 84.7731 36.5483C85.1045 36.6643 85.4674 36.7223 85.8619 36.7223C86.296 36.7223 86.6822 36.6544 87.0202 36.5185C87.3616 36.3793 87.6301 36.187 87.8256 35.9418C88.0212 35.6932 88.119 35.4032 88.119 35.0717C88.119 34.7701 88.0328 34.5232 87.8604 34.331C87.6914 34.1387 87.4611 33.9796 87.1694 33.8537C86.881 33.7278 86.5546 33.6167 86.19 33.5206L84.9869 33.1925C84.1715 32.9704 83.5252 32.6439 83.0479 32.2131C82.574 31.7822 82.337 31.2121 82.337 30.5028C82.337 29.9162 82.4961 29.4041 82.8143 28.9666C83.1325 28.5291 83.5633 28.1894 84.1069 27.9474C84.6504 27.7022 85.2636 27.5796 85.9464 27.5796C86.6358 27.5796 87.244 27.7005 87.771 27.9425C88.3013 28.1844 88.7189 28.5175 89.0238 28.9418C89.3287 29.3627 89.4878 29.8466 89.5011 30.3935H88.0195ZM94.9213 30.2642V31.4574H90.7502V30.2642H94.9213ZM91.8688 28.4347H93.3553V35.6584C93.3553 35.9467 93.3984 36.1638 93.4846 36.3097C93.5707 36.4522 93.6818 36.55 93.8176 36.603C93.9569 36.6527 94.1077 36.6776 94.2701 36.6776C94.3894 36.6776 94.4938 36.6693 94.5833 36.6527C94.6728 36.6361 94.7424 36.6229 94.7921 36.6129L95.0605 37.8409C94.9744 37.8741 94.8517 37.9072 94.6926 37.9403C94.5336 37.9768 94.3347 37.9967 94.0961 38C93.705 38.0066 93.3404 37.937 93.0023 37.7912C92.6642 37.6454 92.3908 37.42 92.182 37.1151C91.9732 36.8101 91.8688 36.4273 91.8688 35.9666V28.4347ZM99.7003 38.0547C98.9844 38.0547 98.3596 37.8906 97.826 37.5625C97.2924 37.2344 96.8781 36.7753 96.5831 36.1854C96.2881 35.5954 96.1406 34.906 96.1406 34.1172C96.1406 33.3251 96.2881 32.6323 96.5831 32.0391C96.8781 31.4458 97.2924 30.9851 97.826 30.657C98.3596 30.3288 98.9844 30.1648 99.7003 30.1648C100.416 30.1648 101.041 30.3288 101.575 30.657C102.108 30.9851 102.522 31.4458 102.817 32.0391C103.112 32.6323 103.26 33.3251 103.26 34.1172C103.26 34.906 103.112 35.5954 102.817 36.1854C102.522 36.7753 102.108 37.2344 101.575 37.5625C101.041 37.8906 100.416 38.0547 99.7003 38.0547ZM99.7053 36.8068C100.169 36.8068 100.554 36.6842 100.859 36.4389C101.164 36.1937 101.389 35.8672 101.535 35.4595C101.684 35.0519 101.759 34.6028 101.759 34.1122C101.759 33.625 101.684 33.1776 101.535 32.7699C101.389 32.3589 101.164 32.0291 100.859 31.7805C100.554 31.532 100.169 31.4077 99.7053 31.4077C99.2379 31.4077 98.8501 31.532 98.5419 31.7805C98.237 32.0291 98.0099 32.3589 97.8608 32.7699C97.715 33.1776 97.642 33.625 97.642 34.1122C97.642 34.6028 97.715 35.0519 97.8608 35.4595C98.0099 35.8672 98.237 36.1937 98.5419 36.4389C98.8501 36.6842 99.2379 36.8068 99.7053 36.8068ZM104.919 37.9006V30.2642H106.356V31.4773H106.436C106.575 31.0663 106.82 30.7431 107.171 30.5078C107.526 30.2692 107.927 30.1499 108.374 30.1499C108.467 30.1499 108.577 30.1532 108.703 30.1598C108.832 30.1664 108.933 30.1747 109.006 30.1847V31.6065C108.946 31.59 108.84 31.5717 108.688 31.5519C108.535 31.5287 108.383 31.5171 108.23 31.5171C107.879 31.5171 107.566 31.5916 107.291 31.7408C107.019 31.8866 106.803 32.0904 106.644 32.3523C106.485 32.6108 106.406 32.9058 106.406 33.2372V37.9006H104.919ZM113.31 38.0547C112.558 38.0547 111.91 37.8939 111.366 37.5724C110.826 37.2476 110.408 36.7919 110.113 36.2053C109.822 35.6153 109.676 34.9242 109.676 34.1321C109.676 33.3499 109.822 32.6605 110.113 32.0639C110.408 31.4673 110.819 31.0017 111.346 30.6669C111.877 30.3322 112.496 30.1648 113.206 30.1648C113.636 30.1648 114.054 30.236 114.458 30.3786C114.863 30.5211 115.226 30.7448 115.547 31.0497C115.869 31.3546 116.122 31.7507 116.308 32.2379C116.493 32.7218 116.586 33.3101 116.586 34.0028V34.5298H110.516V33.4162H115.13C115.13 33.0251 115.05 32.6787 114.891 32.3771C114.732 32.0722 114.508 31.8319 114.22 31.6563C113.935 31.4806 113.6 31.3928 113.216 31.3928C112.798 31.3928 112.433 31.4955 112.122 31.701C111.814 31.9032 111.575 32.1683 111.406 32.4965C111.24 32.8213 111.157 33.1742 111.157 33.5554V34.4254C111.157 34.9358 111.247 35.37 111.426 35.728C111.608 36.0859 111.862 36.3594 112.186 36.5483C112.511 36.7339 112.891 36.8267 113.325 36.8267C113.607 36.8267 113.864 36.7869 114.096 36.7074C114.328 36.6245 114.528 36.5019 114.697 36.3395C114.866 36.1771 114.995 35.9766 115.085 35.7379L116.492 35.9915C116.379 36.4058 116.177 36.7687 115.885 37.0803C115.597 37.3885 115.234 37.6288 114.797 37.8011C114.362 37.9702 113.867 38.0547 113.31 38.0547Z"
    fill="white" />
</svg>