<svg width="218" height="152" viewBox="0 0 218 152" fill="none" xmlns="http://www.w3.org/2000/svg">
<g filter="url(#filter0_d_712_3700)">
<path d="M25 23C25 21.8954 25.8954 21 27 21H177.227C178.331 21 179.227 21.8954 179.227 23V76.3887C179.227 76.5917 179.258 76.7934 179.318 76.9871L192.82 120.048C193.428 121.988 191.09 123.493 189.576 122.135L153.508 89.7824C153.141 89.4532 152.666 89.2712 152.173 89.2712H27C25.8954 89.2712 25 88.3758 25 87.2712V23Z" fill="white"/>
</g>
<g clip-path="url(#clip0_712_3700)">
<path d="M40.7333 38.0667L37.9333 35.2667L37 36.2L40.7333 39.9333L48.7333 31.9333L47.8 31L40.7333 38.0667Z" fill="#13A541"/>
</g>
<path d="M65.858 33.0455C65.8153 32.6856 65.6425 32.4062 65.3395 32.2074C65.0365 32.0085 64.6648 31.9091 64.2244 31.9091C63.9025 31.9091 63.6207 31.9612 63.3793 32.0653C63.1402 32.1695 62.9531 32.3127 62.8182 32.495C62.6856 32.6773 62.6193 32.8845 62.6193 33.1165C62.6193 33.3106 62.6655 33.4775 62.7578 33.6172C62.8525 33.7545 62.9732 33.8693 63.12 33.9616C63.2668 34.0516 63.4207 34.1262 63.5817 34.1854C63.7427 34.2422 63.8906 34.2884 64.0256 34.3239L64.7642 34.5227C64.9536 34.5724 65.1643 34.6411 65.3963 34.7287C65.6307 34.8163 65.8544 34.9358 66.0675 35.0874C66.2829 35.2365 66.4605 35.4283 66.6001 35.6626C66.7398 35.897 66.8097 36.1847 66.8097 36.5256C66.8097 36.9186 66.7067 37.2737 66.5007 37.5909C66.2971 37.9081 65.9988 38.1603 65.6058 38.3473C65.2152 38.5343 64.7405 38.6278 64.1818 38.6278C63.661 38.6278 63.21 38.5438 62.8288 38.3757C62.45 38.2076 62.1518 37.9732 61.9339 37.6726C61.7185 37.3719 61.5966 37.0227 61.5682 36.625H62.4773C62.5009 36.8996 62.5933 37.1269 62.7543 37.3068C62.9176 37.4844 63.1236 37.617 63.3722 37.7045C63.6231 37.7898 63.893 37.8324 64.1818 37.8324C64.518 37.8324 64.8198 37.7779 65.0874 37.669C65.3549 37.5578 65.5668 37.4039 65.723 37.2074C65.8793 37.0085 65.9574 36.7765 65.9574 36.5114C65.9574 36.2699 65.8899 36.0734 65.755 35.9219C65.62 35.7704 65.4425 35.6473 65.2223 35.5526C65.0021 35.4579 64.7642 35.375 64.5085 35.304L63.6136 35.0483C63.0455 34.8849 62.5956 34.6518 62.2642 34.3487C61.9328 34.0457 61.767 33.6491 61.767 33.1591C61.767 32.7519 61.8771 32.3968 62.0973 32.0938C62.3198 31.7884 62.6181 31.5516 62.9922 31.3835C63.3686 31.2131 63.7888 31.1278 64.2528 31.1278C64.7216 31.1278 65.1383 31.2119 65.5028 31.38C65.8674 31.5457 66.1563 31.773 66.3693 32.0618C66.5848 32.3506 66.6984 32.6785 66.7102 33.0455H65.858ZM70.5162 33.0455V33.7557H67.6895V33.0455H70.5162ZM68.5133 31.7386H69.3514V36.9375C69.3514 37.1742 69.3857 37.3518 69.4544 37.4702C69.5254 37.5862 69.6154 37.6643 69.7243 37.7045C69.8355 37.7424 69.9527 37.7614 70.0758 37.7614C70.1681 37.7614 70.2439 37.7566 70.3031 37.7472C70.3623 37.7353 70.4096 37.7259 70.4451 37.7188L70.6156 38.4716C70.5588 38.4929 70.4795 38.5142 70.3777 38.5355C70.2759 38.5592 70.1468 38.571 69.9906 38.571C69.7538 38.571 69.5218 38.5201 69.2946 38.4183C69.0697 38.3165 68.8826 38.1615 68.7335 37.9531C68.5867 37.7448 68.5133 37.482 68.5133 37.1648V31.7386ZM75.2143 36.2699V33.0455H76.0524V38.5H75.2143V37.5767H75.1575C75.0297 37.8537 74.8308 38.0893 74.5609 38.2834C74.291 38.4751 73.9501 38.571 73.5382 38.571C73.1973 38.571 72.8942 38.4964 72.6291 38.3473C72.3639 38.1958 72.1556 37.9685 72.0041 37.6655C71.8526 37.3601 71.7768 36.9754 71.7768 36.5114V33.0455H72.6149V36.4545C72.6149 36.8523 72.7261 37.1695 72.9487 37.4062C73.1736 37.643 73.46 37.7614 73.8081 37.7614C74.0164 37.7614 74.2283 37.7081 74.4437 37.6016C74.6615 37.495 74.8438 37.3317 74.9906 37.1115C75.1397 36.8913 75.2143 36.6108 75.2143 36.2699ZM79.647 38.6136C79.1925 38.6136 78.7912 38.4988 78.4432 38.2692C78.0952 38.0372 77.8229 37.7105 77.6264 37.2891C77.4299 36.8653 77.3317 36.3646 77.3317 35.7869C77.3317 35.214 77.4299 34.7169 77.6264 34.2955C77.8229 33.8741 78.0964 33.5485 78.4467 33.3189C78.7971 33.0893 79.2019 32.9744 79.6612 32.9744C80.0163 32.9744 80.2969 33.0336 80.5028 33.152C80.7112 33.268 80.8698 33.4006 80.9787 33.5497C81.09 33.6965 81.1764 33.8172 81.2379 33.9119H81.3089V31.2273H82.147V38.5H81.3374V37.6619H81.2379C81.1764 37.7614 81.0888 37.8868 80.9751 38.0384C80.8615 38.1875 80.6993 38.3213 80.4886 38.4396C80.2779 38.5556 79.9974 38.6136 79.647 38.6136ZM79.7607 37.8608C80.0968 37.8608 80.3809 37.7732 80.6129 37.598C80.8449 37.4205 81.0213 37.1754 81.142 36.8629C81.2628 36.5481 81.3232 36.1847 81.3232 35.7727C81.3232 35.3655 81.264 35.0092 81.1456 34.7038C81.0272 34.3961 80.852 34.157 80.62 33.9865C80.388 33.8137 80.1016 33.7273 79.7607 33.7273C79.4055 33.7273 79.1096 33.8184 78.8729 34.0007C78.6385 34.1806 78.4621 34.4257 78.3438 34.7358C78.2277 35.0436 78.1697 35.3892 78.1697 35.7727C78.1697 36.161 78.2289 36.5137 78.3473 36.831C78.468 37.1458 78.6456 37.3968 78.88 37.5838C79.1167 37.7685 79.4103 37.8608 79.7607 37.8608ZM86.0852 38.6136C85.5597 38.6136 85.1063 38.4976 84.7251 38.2656C84.3464 38.0312 84.054 37.7045 83.848 37.2855C83.6444 36.8641 83.5426 36.3741 83.5426 35.8153C83.5426 35.2566 83.6444 34.7642 83.848 34.3381C84.054 33.9096 84.3404 33.5758 84.7074 33.3366C85.0767 33.0952 85.5076 32.9744 86 32.9744C86.2841 32.9744 86.5646 33.0218 86.8416 33.1165C87.1186 33.2112 87.3707 33.3651 87.598 33.5781C87.8253 33.7888 88.0064 34.0682 88.1413 34.4162C88.2763 34.7642 88.3438 35.1927 88.3438 35.7017V36.0568H84.1392V35.3324H87.4915C87.4915 35.0246 87.4299 34.75 87.3068 34.5085C87.1861 34.267 87.0133 34.0765 86.7884 33.9368C86.5658 33.7971 86.303 33.7273 86 33.7273C85.6662 33.7273 85.3774 33.8101 85.1335 33.9759C84.892 34.1392 84.7062 34.3523 84.576 34.6151C84.4458 34.8778 84.3807 35.1596 84.3807 35.4602V35.9432C84.3807 36.3551 84.4517 36.7043 84.5938 36.9908C84.7382 37.2749 84.9382 37.4915 85.1939 37.6406C85.4496 37.7874 85.7467 37.8608 86.0852 37.8608C86.3054 37.8608 86.5043 37.83 86.6818 37.7685C86.8617 37.7045 87.0168 37.6098 87.147 37.4844C87.2772 37.3565 87.3778 37.1979 87.4489 37.0085L88.2585 37.2358C88.1733 37.5104 88.0301 37.7519 87.8288 37.9602C87.6276 38.1662 87.379 38.3272 87.0831 38.4432C86.7872 38.5568 86.4545 38.6136 86.0852 38.6136ZM90.4567 35.2188V38.5H89.6186V33.0455H90.4283V33.8977H90.4993C90.6271 33.6207 90.8213 33.3982 91.0817 33.2301C91.3421 33.0597 91.6783 32.9744 92.0902 32.9744C92.4595 32.9744 92.7827 33.0502 93.0597 33.2017C93.3366 33.3509 93.5521 33.5781 93.706 33.8835C93.8598 34.1866 93.9368 34.5701 93.9368 35.0341V38.5H93.0987V35.0909C93.0987 34.6624 92.9875 34.3286 92.7649 34.0895C92.5424 33.848 92.237 33.7273 91.8487 33.7273C91.5812 33.7273 91.3421 33.7853 91.1314 33.9013C90.9231 34.0173 90.7585 34.1866 90.6378 34.4091C90.517 34.6316 90.4567 34.9015 90.4567 35.2188ZM97.8404 33.0455V33.7557H95.0137V33.0455H97.8404ZM95.8375 31.7386H96.6756V36.9375C96.6756 37.1742 96.7099 37.3518 96.7786 37.4702C96.8496 37.5862 96.9396 37.6643 97.0485 37.7045C97.1597 37.7424 97.2769 37.7614 97.4 37.7614C97.4924 37.7614 97.5681 37.7566 97.6273 37.7472C97.6865 37.7353 97.7338 37.7259 97.7694 37.7188L97.9398 38.4716C97.883 38.4929 97.8037 38.5142 97.7019 38.5355C97.6001 38.5592 97.4711 38.571 97.3148 38.571C97.0781 38.571 96.8461 38.5201 96.6188 38.4183C96.3939 38.3165 96.2069 38.1615 96.0577 37.9531C95.9109 37.7448 95.8375 37.482 95.8375 37.1648V31.7386ZM102.867 34.267L102.114 34.4801C102.067 34.3546 101.997 34.2327 101.905 34.1143C101.815 33.9936 101.692 33.8942 101.535 33.8161C101.379 33.7379 101.179 33.6989 100.935 33.6989C100.601 33.6989 100.323 33.7758 100.101 33.9297C99.8805 34.0812 99.7704 34.2741 99.7704 34.5085C99.7704 34.7169 99.8462 34.8814 99.9977 35.0021C100.149 35.1229 100.386 35.2235 100.708 35.304L101.518 35.5028C102.005 35.6212 102.369 35.8023 102.608 36.0462C102.847 36.2876 102.966 36.599 102.966 36.9801C102.966 37.2926 102.876 37.572 102.697 37.8182C102.519 38.0644 102.27 38.2585 101.951 38.4006C101.631 38.5426 101.26 38.6136 100.836 38.6136C100.279 38.6136 99.819 38.4929 99.4544 38.2514C99.0898 38.0099 98.859 37.6572 98.7619 37.1932L99.5574 36.9943C99.6331 37.2879 99.7763 37.508 99.987 37.6548C100.2 37.8016 100.478 37.875 100.822 37.875C101.212 37.875 101.522 37.7921 101.752 37.6264C101.984 37.4583 102.1 37.2571 102.1 37.0227C102.1 36.8333 102.034 36.6747 101.901 36.5469C101.769 36.4167 101.565 36.3196 101.29 36.2557L100.381 36.0426C99.8817 35.9242 99.5147 35.7408 99.2804 35.4922C99.0484 35.2412 98.9324 34.9276 98.9324 34.5511C98.9324 34.2434 99.0188 33.9711 99.1916 33.7344C99.3668 33.4976 99.6047 33.3118 99.9054 33.1768C100.208 33.0419 100.552 32.9744 100.935 32.9744C101.475 32.9744 101.899 33.0928 102.206 33.3295C102.517 33.5663 102.737 33.8788 102.867 34.267ZM108.646 38.6278C108.3 38.6278 107.986 38.5627 107.705 38.4325C107.423 38.3 107.199 38.1094 107.033 37.8608C106.868 37.6098 106.785 37.3068 106.785 36.9517C106.785 36.6392 106.846 36.3859 106.969 36.1918C107.093 35.9953 107.257 35.8414 107.463 35.7301C107.669 35.6188 107.896 35.536 108.145 35.4815C108.396 35.4247 108.648 35.3797 108.901 35.3466C109.233 35.304 109.501 35.272 109.707 35.2507C109.916 35.227 110.067 35.188 110.162 35.1335C110.259 35.0791 110.308 34.9844 110.308 34.8494V34.821C110.308 34.4706 110.212 34.1984 110.02 34.0043C109.83 33.8101 109.543 33.7131 109.157 33.7131C108.757 33.7131 108.443 33.8007 108.216 33.9759C107.989 34.151 107.829 34.3381 107.737 34.5369L106.941 34.2528C107.083 33.9214 107.272 33.6634 107.509 33.4787C107.748 33.2917 108.009 33.1615 108.29 33.0881C108.575 33.0123 108.854 32.9744 109.129 32.9744C109.304 32.9744 109.505 32.9957 109.732 33.0384C109.962 33.0786 110.183 33.1626 110.396 33.2905C110.612 33.4183 110.79 33.6113 110.933 33.8693C111.075 34.1274 111.146 34.473 111.146 34.9062V38.5H110.308V37.7614H110.265C110.208 37.8797 110.113 38.0064 109.981 38.1413C109.848 38.2763 109.672 38.3911 109.452 38.4858C109.232 38.5805 108.963 38.6278 108.646 38.6278ZM108.773 37.875C109.105 37.875 109.384 37.8099 109.612 37.6797C109.841 37.5495 110.014 37.3814 110.13 37.1754C110.248 36.9695 110.308 36.7528 110.308 36.5256V35.7585C110.272 35.8011 110.194 35.8402 110.073 35.8757C109.955 35.9089 109.817 35.9384 109.661 35.9645C109.507 35.9882 109.357 36.0095 109.21 36.0284C109.066 36.045 108.949 36.0592 108.859 36.071C108.641 36.0994 108.437 36.1456 108.248 36.2095C108.061 36.2711 107.909 36.3646 107.793 36.4901C107.68 36.6132 107.623 36.7812 107.623 36.9943C107.623 37.2855 107.731 37.5057 107.946 37.6548C108.164 37.8016 108.44 37.875 108.773 37.875ZM115.047 33.0455V33.7557H112.221V33.0455H115.047ZM113.045 31.7386H113.883V36.9375C113.883 37.1742 113.917 37.3518 113.986 37.4702C114.057 37.5862 114.147 37.6643 114.256 37.7045C114.367 37.7424 114.484 37.7614 114.607 37.7614C114.699 37.7614 114.775 37.7566 114.834 37.7472C114.894 37.7353 114.941 37.7259 114.976 37.7188L115.147 38.4716C115.09 38.4929 115.011 38.5142 114.909 38.5355C114.807 38.5592 114.678 38.571 114.522 38.571C114.285 38.571 114.053 38.5201 113.826 38.4183C113.601 38.3165 113.414 38.1615 113.265 37.9531C113.118 37.7448 113.045 37.482 113.045 37.1648V31.7386ZM118.68 33.0455V33.7557H115.854V33.0455H118.68ZM116.677 31.7386H117.515V36.9375C117.515 37.1742 117.55 37.3518 117.618 37.4702C117.689 37.5862 117.779 37.6643 117.888 37.7045C118 37.7424 118.117 37.7614 118.24 37.7614C118.332 37.7614 118.408 37.7566 118.467 37.7472C118.526 37.7353 118.574 37.7259 118.609 37.7188L118.78 38.4716C118.723 38.4929 118.644 38.5142 118.542 38.5355C118.44 38.5592 118.311 38.571 118.155 38.571C117.918 38.571 117.686 38.5201 117.459 38.4183C117.234 38.3165 117.047 38.1615 116.898 37.9531C116.751 37.7448 116.677 37.482 116.677 37.1648V31.7386ZM122.169 38.6136C121.644 38.6136 121.19 38.4976 120.809 38.2656C120.43 38.0312 120.138 37.7045 119.932 37.2855C119.728 36.8641 119.627 36.3741 119.627 35.8153C119.627 35.2566 119.728 34.7642 119.932 34.3381C120.138 33.9096 120.424 33.5758 120.791 33.3366C121.161 33.0952 121.592 32.9744 122.084 32.9744C122.368 32.9744 122.649 33.0218 122.926 33.1165C123.203 33.2112 123.455 33.3651 123.682 33.5781C123.909 33.7888 124.09 34.0682 124.225 34.4162C124.36 34.7642 124.428 35.1927 124.428 35.7017V36.0568H120.223V35.3324H123.575C123.575 35.0246 123.514 34.75 123.391 34.5085C123.27 34.267 123.097 34.0765 122.872 33.9368C122.65 33.7971 122.387 33.7273 122.084 33.7273C121.75 33.7273 121.461 33.8101 121.218 33.9759C120.976 34.1392 120.79 34.3523 120.66 34.6151C120.53 34.8778 120.465 35.1596 120.465 35.4602V35.9432C120.465 36.3551 120.536 36.7043 120.678 36.9908C120.822 37.2749 121.022 37.4915 121.278 37.6406C121.534 37.7874 121.831 37.8608 122.169 37.8608C122.389 37.8608 122.588 37.83 122.766 37.7685C122.946 37.7045 123.101 37.6098 123.231 37.4844C123.361 37.3565 123.462 37.1979 123.533 37.0085L124.343 37.2358C124.257 37.5104 124.114 37.7519 123.913 37.9602C123.712 38.1662 123.463 38.3272 123.167 38.4432C122.871 38.5568 122.539 38.6136 122.169 38.6136ZM126.541 35.2188V38.5H125.703V33.0455H126.512V33.8977H126.583C126.711 33.6207 126.905 33.3982 127.166 33.2301C127.426 33.0597 127.762 32.9744 128.174 32.9744C128.544 32.9744 128.867 33.0502 129.144 33.2017C129.421 33.3509 129.636 33.5781 129.79 33.8835C129.944 34.1866 130.021 34.5701 130.021 35.0341V38.5H129.183V35.0909C129.183 34.6624 129.071 34.3286 128.849 34.0895C128.626 33.848 128.321 33.7273 127.933 33.7273C127.665 33.7273 127.426 33.7853 127.215 33.9013C127.007 34.0173 126.843 34.1866 126.722 34.4091C126.601 34.6316 126.541 34.9015 126.541 35.2188ZM133.612 38.6136C133.157 38.6136 132.756 38.4988 132.408 38.2692C132.06 38.0372 131.788 37.7105 131.591 37.2891C131.395 36.8653 131.297 36.3646 131.297 35.7869C131.297 35.214 131.395 34.7169 131.591 34.2955C131.788 33.8741 132.061 33.5485 132.412 33.3189C132.762 33.0893 133.167 32.9744 133.626 32.9744C133.981 32.9744 134.262 33.0336 134.468 33.152C134.676 33.268 134.835 33.4006 134.944 33.5497C135.055 33.6965 135.141 33.8172 135.203 33.9119H135.274V31.2273H136.112V38.5H135.302V37.6619H135.203C135.141 37.7614 135.054 37.8868 134.94 38.0384C134.826 38.1875 134.664 38.3213 134.453 38.4396C134.243 38.5556 133.962 38.6136 133.612 38.6136ZM133.725 37.8608C134.062 37.8608 134.346 37.7732 134.578 37.598C134.81 37.4205 134.986 37.1754 135.107 36.8629C135.228 36.5481 135.288 36.1847 135.288 35.7727C135.288 35.3655 135.229 35.0092 135.11 34.7038C134.992 34.3961 134.817 34.157 134.585 33.9865C134.353 33.8137 134.066 33.7273 133.725 33.7273C133.37 33.7273 133.074 33.8184 132.838 34.0007C132.603 34.1806 132.427 34.4257 132.309 34.7358C132.193 35.0436 132.135 35.3892 132.135 35.7727C132.135 36.161 132.194 36.5137 132.312 36.831C132.433 37.1458 132.61 37.3968 132.845 37.5838C133.082 37.7685 133.375 37.8608 133.725 37.8608ZM139.368 38.6278C139.023 38.6278 138.709 38.5627 138.427 38.4325C138.145 38.3 137.922 38.1094 137.756 37.8608C137.59 37.6098 137.507 37.3068 137.507 36.9517C137.507 36.6392 137.569 36.3859 137.692 36.1918C137.815 35.9953 137.98 35.8414 138.186 35.7301C138.392 35.6188 138.619 35.536 138.868 35.4815C139.118 35.4247 139.371 35.3797 139.624 35.3466C139.955 35.304 140.224 35.272 140.43 35.2507C140.638 35.227 140.79 35.188 140.885 35.1335C140.982 35.0791 141.03 34.9844 141.03 34.8494V34.821C141.03 34.4706 140.934 34.1984 140.743 34.0043C140.553 33.8101 140.266 33.7131 139.88 33.7131C139.48 33.7131 139.166 33.8007 138.939 33.9759C138.711 34.151 138.551 34.3381 138.459 34.5369L137.664 34.2528C137.806 33.9214 137.995 33.6634 138.232 33.4787C138.471 33.2917 138.731 33.1615 139.013 33.0881C139.297 33.0123 139.577 32.9744 139.851 32.9744C140.026 32.9744 140.228 32.9957 140.455 33.0384C140.685 33.0786 140.906 33.1626 141.119 33.2905C141.334 33.4183 141.513 33.6113 141.655 33.8693C141.797 34.1274 141.868 34.473 141.868 34.9062V38.5H141.03V37.7614H140.988C140.931 37.8797 140.836 38.0064 140.703 38.1413C140.571 38.2763 140.395 38.3911 140.174 38.4858C139.954 38.5805 139.685 38.6278 139.368 38.6278ZM139.496 37.875C139.828 37.875 140.107 37.8099 140.334 37.6797C140.564 37.5495 140.737 37.3814 140.853 37.1754C140.971 36.9695 141.03 36.7528 141.03 36.5256V35.7585C140.995 35.8011 140.917 35.8402 140.796 35.8757C140.677 35.9089 140.54 35.9384 140.384 35.9645C140.23 35.9882 140.08 36.0095 139.933 36.0284C139.788 36.045 139.671 36.0592 139.581 36.071C139.364 36.0994 139.16 36.1456 138.971 36.2095C138.783 36.2711 138.632 36.3646 138.516 36.4901C138.402 36.6132 138.346 36.7812 138.346 36.9943C138.346 37.2855 138.453 37.5057 138.669 37.6548C138.886 37.8016 139.162 37.875 139.496 37.875ZM144.236 35.2188V38.5H143.398V33.0455H144.208V33.8977H144.279C144.406 33.6207 144.601 33.3982 144.861 33.2301C145.121 33.0597 145.458 32.9744 145.869 32.9744C146.239 32.9744 146.562 33.0502 146.839 33.2017C147.116 33.3509 147.331 33.5781 147.485 33.8835C147.639 34.1866 147.716 34.5701 147.716 35.0341V38.5H146.878V35.0909C146.878 34.6624 146.767 34.3286 146.544 34.0895C146.322 33.848 146.016 33.7273 145.628 33.7273C145.36 33.7273 145.121 33.7853 144.911 33.9013C144.702 34.0173 144.538 34.1866 144.417 34.4091C144.296 34.6316 144.236 34.9015 144.236 35.2188ZM151.463 38.6136C150.952 38.6136 150.512 38.4929 150.142 38.2514C149.773 38.0099 149.489 37.6773 149.29 37.2536C149.091 36.8298 148.992 36.3456 148.992 35.8011C148.992 35.2472 149.094 34.7583 149.297 34.3345C149.503 33.9084 149.79 33.5758 150.157 33.3366C150.526 33.0952 150.957 32.9744 151.449 32.9744C151.833 32.9744 152.178 33.0455 152.486 33.1875C152.794 33.3295 153.046 33.5284 153.243 33.7841C153.439 34.0398 153.561 34.3381 153.608 34.679H152.77C152.706 34.4304 152.564 34.2102 152.344 34.0185C152.126 33.8243 151.833 33.7273 151.463 33.7273C151.137 33.7273 150.85 33.8125 150.604 33.983C150.36 34.151 150.17 34.389 150.032 34.6967C149.897 35.0021 149.83 35.3608 149.83 35.7727C149.83 36.1941 149.896 36.5611 150.029 36.8736C150.164 37.1861 150.353 37.4287 150.597 37.6016C150.843 37.7744 151.132 37.8608 151.463 37.8608C151.681 37.8608 151.879 37.8229 152.056 37.7472C152.234 37.6714 152.384 37.5625 152.507 37.4205C152.631 37.2784 152.718 37.108 152.77 36.9091H153.608C153.561 37.2311 153.444 37.5211 153.257 37.7791C153.072 38.0348 152.827 38.2384 152.522 38.3899C152.219 38.5391 151.866 38.6136 151.463 38.6136ZM157.12 38.6136C156.595 38.6136 156.141 38.4976 155.76 38.2656C155.382 38.0312 155.089 37.7045 154.883 37.2855C154.68 36.8641 154.578 36.3741 154.578 35.8153C154.578 35.2566 154.68 34.7642 154.883 34.3381C155.089 33.9096 155.376 33.5758 155.743 33.3366C156.112 33.0952 156.543 32.9744 157.035 32.9744C157.319 32.9744 157.6 33.0218 157.877 33.1165C158.154 33.2112 158.406 33.3651 158.633 33.5781C158.86 33.7888 159.042 34.0682 159.176 34.4162C159.311 34.7642 159.379 35.1927 159.379 35.7017V36.0568H155.174V35.3324H158.527C158.527 35.0246 158.465 34.75 158.342 34.5085C158.221 34.267 158.048 34.0765 157.824 33.9368C157.601 33.7971 157.338 33.7273 157.035 33.7273C156.701 33.7273 156.413 33.8101 156.169 33.9759C155.927 34.1392 155.741 34.3523 155.611 34.6151C155.481 34.8778 155.416 35.1596 155.416 35.4602V35.9432C155.416 36.3551 155.487 36.7043 155.629 36.9908C155.773 37.2749 155.973 37.4915 156.229 37.6406C156.485 37.7874 156.782 37.8608 157.12 37.8608C157.341 37.8608 157.539 37.83 157.717 37.7685C157.897 37.7045 158.052 37.6098 158.182 37.4844C158.312 37.3565 158.413 37.1979 158.484 37.0085L159.294 37.2358C159.208 37.5104 159.065 37.7519 158.864 37.9602C158.663 38.1662 158.414 38.3272 158.118 38.4432C157.822 38.5568 157.49 38.6136 157.12 38.6136Z" fill="#08190E"/>
<g clip-path="url(#clip1_712_3700)">
<path d="M40.7333 58.0667L37.9333 55.2667L37 56.2L40.7333 59.9333L48.7333 51.9333L47.8 51L40.7333 58.0667Z" fill="#13A541"/>
</g>
<path d="M62.179 58H61.2557L63.9261 50.7273H64.8352L67.5057 58H66.5824L64.4091 51.8778H64.3523L62.179 58ZM62.5199 55.1591H66.2415V55.9403H62.5199V55.1591ZM72.3885 53.767L71.6357 53.9801C71.5883 53.8546 71.5185 53.7327 71.4261 53.6143C71.3362 53.4936 71.2131 53.3942 71.0568 53.3161C70.9006 53.2379 70.7005 53.1989 70.4567 53.1989C70.1229 53.1989 69.8447 53.2758 69.6222 53.4297C69.402 53.5812 69.2919 53.7741 69.2919 54.0085C69.2919 54.2169 69.3677 54.3814 69.5192 54.5021C69.6707 54.6229 69.9074 54.7235 70.2294 54.804L71.0391 55.0028C71.5268 55.1212 71.8902 55.3023 72.1293 55.5462C72.3684 55.7876 72.4879 56.099 72.4879 56.4801C72.4879 56.7926 72.398 57.072 72.218 57.3182C72.0405 57.5644 71.7919 57.7585 71.4723 57.9006C71.1527 58.0426 70.781 58.1136 70.3572 58.1136C69.8009 58.1136 69.3404 57.9929 68.9759 57.7514C68.6113 57.5099 68.3804 57.1572 68.2834 56.6932L69.0788 56.4943C69.1546 56.7879 69.2978 57.008 69.5085 57.1548C69.7216 57.3016 69.9998 57.375 70.343 57.375C70.7337 57.375 71.0438 57.2921 71.2734 57.1264C71.5054 56.9583 71.6214 56.7571 71.6214 56.5227C71.6214 56.3333 71.5552 56.1747 71.4226 56.0469C71.29 55.9167 71.0864 55.8196 70.8118 55.7557L69.9027 55.5426C69.4032 55.4242 69.0362 55.2408 68.8018 54.9922C68.5698 54.7412 68.4538 54.4276 68.4538 54.0511C68.4538 53.7434 68.5402 53.4711 68.7131 53.2344C68.8883 52.9976 69.1262 52.8118 69.4268 52.6768C69.7299 52.5419 70.0732 52.4744 70.4567 52.4744C70.9964 52.4744 71.4202 52.5928 71.728 52.8295C72.0381 53.0663 72.2583 53.3788 72.3885 53.767ZM77.6131 53.767L76.8603 53.9801C76.8129 53.8546 76.7431 53.7327 76.6507 53.6143C76.5608 53.4936 76.4377 53.3942 76.2814 53.3161C76.1252 53.2379 75.9251 53.1989 75.6813 53.1989C75.3475 53.1989 75.0693 53.2758 74.8468 53.4297C74.6266 53.5812 74.5165 53.7741 74.5165 54.0085C74.5165 54.2169 74.5923 54.3814 74.7438 54.5021C74.8953 54.6229 75.132 54.7235 75.454 54.804L76.2637 55.0028C76.7514 55.1212 77.1148 55.3023 77.3539 55.5462C77.593 55.7876 77.7125 56.099 77.7125 56.4801C77.7125 56.7926 77.6226 57.072 77.4426 57.3182C77.2651 57.5644 77.0165 57.7585 76.6969 57.9006C76.3773 58.0426 76.0056 58.1136 75.5819 58.1136C75.0255 58.1136 74.565 57.9929 74.2005 57.7514C73.8359 57.5099 73.6051 57.1572 73.508 56.6932L74.3034 56.4943C74.3792 56.7879 74.5224 57.008 74.7331 57.1548C74.9462 57.3016 75.2244 57.375 75.5676 57.375C75.9583 57.375 76.2684 57.2921 76.498 57.1264C76.7301 56.9583 76.8461 56.7571 76.8461 56.5227C76.8461 56.3333 76.7798 56.1747 76.6472 56.0469C76.5146 55.9167 76.311 55.8196 76.0364 55.7557L75.1273 55.5426C74.6278 55.4242 74.2608 55.2408 74.0265 54.9922C73.7944 54.7412 73.6784 54.4276 73.6784 54.0511C73.6784 53.7434 73.7649 53.4711 73.9377 53.2344C74.1129 52.9976 74.3508 52.8118 74.6515 52.6768C74.9545 52.5419 75.2978 52.4744 75.6813 52.4744C76.2211 52.4744 76.6448 52.5928 76.9526 52.8295C77.2627 53.0663 77.4829 53.3788 77.6131 53.767ZM78.9741 58V52.5455H79.8121V58H78.9741ZM79.4002 51.6364C79.2369 51.6364 79.096 51.5807 78.9776 51.4695C78.8616 51.3582 78.8036 51.2244 78.8036 51.0682C78.8036 50.9119 78.8616 50.7782 78.9776 50.6669C79.096 50.5556 79.2369 50.5 79.4002 50.5C79.5636 50.5 79.7032 50.5556 79.8192 50.6669C79.9376 50.7782 79.9968 50.9119 79.9968 51.0682C79.9968 51.2244 79.9376 51.3582 79.8192 51.4695C79.7032 51.5807 79.5636 51.6364 79.4002 51.6364ZM83.5488 60.1591C83.144 60.1591 82.796 60.107 82.5048 60.0028C82.2136 59.901 81.9709 59.7661 81.7768 59.598C81.585 59.4323 81.4324 59.2547 81.3187 59.0653L81.9863 58.5966C82.0621 58.696 82.158 58.8097 82.274 58.9375C82.39 59.0677 82.5486 59.1802 82.7498 59.2749C82.9534 59.3719 83.2198 59.4205 83.5488 59.4205C83.9892 59.4205 84.3526 59.3139 84.639 59.1009C84.9255 58.8878 85.0687 58.554 85.0687 58.0994V56.9915H84.9977C84.9361 57.0909 84.8485 57.214 84.7349 57.3608C84.6236 57.5052 84.4627 57.6342 84.252 57.7479C84.0436 57.8591 83.7619 57.9148 83.4068 57.9148C82.9664 57.9148 82.5711 57.8106 82.2207 57.6023C81.8727 57.3939 81.5969 57.0909 81.3933 56.6932C81.1921 56.2955 81.0914 55.8125 81.0914 55.2443C81.0914 54.6856 81.1897 54.1991 81.3862 53.7848C81.5827 53.3681 81.8561 53.0462 82.2065 52.8189C82.5569 52.5893 82.9617 52.4744 83.421 52.4744C83.7761 52.4744 84.0578 52.5336 84.2662 52.652C84.4769 52.768 84.6378 52.9006 84.7491 53.0497C84.8627 53.1965 84.9503 53.3172 85.0119 53.4119H85.0971V52.5455H85.9068V58.1562C85.9068 58.625 85.8002 59.0062 85.5872 59.2997C85.3765 59.5956 85.0924 59.8123 84.7349 59.9496C84.3798 60.0893 83.9844 60.1591 83.5488 60.1591ZM83.5204 57.1619C83.8566 57.1619 84.1407 57.085 84.3727 56.9311C84.6047 56.7772 84.7811 56.5559 84.9018 56.267C85.0225 55.9782 85.0829 55.6326 85.0829 55.2301C85.0829 54.8371 85.0237 54.4903 84.9054 54.1896C84.787 53.889 84.6118 53.6534 84.3798 53.483C84.1478 53.3125 83.8613 53.2273 83.5204 53.2273C83.1653 53.2273 82.8694 53.3172 82.6326 53.4972C82.3983 53.6771 82.2219 53.9186 82.1035 54.2216C81.9875 54.5246 81.9295 54.8608 81.9295 55.2301C81.9295 55.6089 81.9887 55.9439 82.1071 56.2351C82.2278 56.5239 82.4054 56.7512 82.6397 56.9169C82.8765 57.0803 83.17 57.1619 83.5204 57.1619ZM88.2789 54.7188V58H87.4409V52.5455H88.2505V53.3977H88.3216C88.4494 53.1207 88.6435 52.8982 88.9039 52.7301C89.1644 52.5597 89.5005 52.4744 89.9125 52.4744C90.2818 52.4744 90.6049 52.5502 90.8819 52.7017C91.1589 52.8509 91.3743 53.0781 91.5282 53.3835C91.6821 53.6866 91.7591 54.0701 91.7591 54.5341V58H90.921V54.5909C90.921 54.1624 90.8097 53.8286 90.5872 53.5895C90.3646 53.348 90.0592 53.2273 89.671 53.2273C89.4035 53.2273 89.1644 53.2853 88.9537 53.4013C88.7453 53.5173 88.5808 53.6866 88.46 53.9091C88.3393 54.1316 88.2789 54.4015 88.2789 54.7188ZM93.2905 58V52.5455H94.1001V53.3977H94.1712C94.2848 53.1065 94.4683 52.8804 94.7216 52.7195C94.9749 52.5561 95.2791 52.4744 95.6342 52.4744C95.9941 52.4744 96.2936 52.5561 96.5327 52.7195C96.7741 52.8804 96.9624 53.1065 97.0973 53.3977H97.1541C97.2938 53.116 97.5033 52.8923 97.7827 52.7266C98.062 52.5585 98.397 52.4744 98.7876 52.4744C99.2753 52.4744 99.6742 52.6271 99.9844 52.9325C100.295 53.2356 100.45 53.7079 100.45 54.3494V58H99.6115V54.3494C99.6115 53.947 99.5014 53.6593 99.2812 53.4865C99.0611 53.3137 98.8018 53.2273 98.5036 53.2273C98.12 53.2273 97.8229 53.3433 97.6122 53.5753C97.4015 53.8049 97.2962 54.0961 97.2962 54.4489V58H96.4439V54.2642C96.4439 53.9541 96.3433 53.7043 96.142 53.5149C95.9408 53.3232 95.6816 53.2273 95.3643 53.2273C95.1465 53.2273 94.9429 53.2853 94.7536 53.4013C94.5665 53.5173 94.415 53.6783 94.299 53.8842C94.1854 54.0878 94.1286 54.3234 94.1286 54.5909V58H93.2905ZM104.269 58.1136C103.743 58.1136 103.29 57.9976 102.909 57.7656C102.53 57.5312 102.238 57.2045 102.032 56.7855C101.828 56.3641 101.726 55.8741 101.726 55.3153C101.726 54.7566 101.828 54.2642 102.032 53.8381C102.238 53.4096 102.524 53.0758 102.891 52.8366C103.26 52.5952 103.691 52.4744 104.184 52.4744C104.468 52.4744 104.748 52.5218 105.025 52.6165C105.302 52.7112 105.554 52.8651 105.782 53.0781C106.009 53.2888 106.19 53.5682 106.325 53.9162C106.46 54.2642 106.527 54.6927 106.527 55.2017V55.5568H102.323V54.8324H105.675C105.675 54.5246 105.614 54.25 105.49 54.0085C105.37 53.767 105.197 53.5765 104.972 53.4368C104.749 53.2971 104.487 53.2273 104.184 53.2273C103.85 53.2273 103.561 53.3101 103.317 53.4759C103.076 53.6392 102.89 53.8523 102.76 54.1151C102.629 54.3778 102.564 54.6596 102.564 54.9602V55.4432C102.564 55.8551 102.635 56.2043 102.777 56.4908C102.922 56.7749 103.122 56.9915 103.377 57.1406C103.633 57.2874 103.93 57.3608 104.269 57.3608C104.489 57.3608 104.688 57.33 104.865 57.2685C105.045 57.2045 105.2 57.1098 105.331 56.9844C105.461 56.8565 105.561 56.6979 105.632 56.5085L106.442 56.7358C106.357 57.0104 106.214 57.2519 106.012 57.4602C105.811 57.6662 105.563 57.8272 105.267 57.9432C104.971 58.0568 104.638 58.1136 104.269 58.1136ZM108.64 54.7188V58H107.802V52.5455H108.612V53.3977H108.683C108.811 53.1207 109.005 52.8982 109.265 52.7301C109.526 52.5597 109.862 52.4744 110.274 52.4744C110.643 52.4744 110.966 52.5502 111.243 52.7017C111.52 52.8509 111.736 53.0781 111.89 53.3835C112.043 53.6866 112.12 54.0701 112.12 54.5341V58H111.282V54.5909C111.282 54.1624 111.171 53.8286 110.949 53.5895C110.726 53.348 110.421 53.2273 110.032 53.2273C109.765 53.2273 109.526 53.2853 109.315 53.4013C109.107 53.5173 108.942 53.6866 108.821 53.9091C108.701 54.1316 108.64 54.4015 108.64 54.7188ZM116.024 52.5455V53.2557H113.197V52.5455H116.024ZM114.021 51.2386H114.859V56.4375C114.859 56.6742 114.894 56.8518 114.962 56.9702C115.033 57.0862 115.123 57.1643 115.232 57.2045C115.343 57.2424 115.461 57.2614 115.584 57.2614C115.676 57.2614 115.752 57.2566 115.811 57.2472C115.87 57.2353 115.917 57.2259 115.953 57.2188L116.123 57.9716C116.067 57.9929 115.987 58.0142 115.885 58.0355C115.784 58.0592 115.655 58.071 115.498 58.071C115.262 58.071 115.03 58.0201 114.802 57.9183C114.577 57.8165 114.39 57.6615 114.241 57.4531C114.095 57.2448 114.021 56.982 114.021 56.6648V51.2386Z" fill="#08190E"/>
<g clip-path="url(#clip2_712_3700)">
<path d="M40.7333 78.0667L37.9333 75.2667L37 76.2L40.7333 79.9333L48.7333 71.9333L47.8 71L40.7333 78.0667Z" fill="#13A541"/>
</g>
<path d="M59.8807 78V70.7273H64.2699V71.5085H60.7614V73.9659H64.0426V74.7472H60.7614V77.2188H64.3267V78H59.8807ZM66.3686 72.5455L67.6754 74.7756L68.9822 72.5455H69.9482L68.1868 75.2727L69.9482 78H68.9822L67.6754 75.8835L66.3686 78H65.4027L67.1357 75.2727L65.4027 72.5455H66.3686ZM72.7491 78.1278C72.4035 78.1278 72.0898 78.0627 71.8081 77.9325C71.5263 77.8 71.3026 77.6094 71.1369 77.3608C70.9712 77.1098 70.8883 76.8068 70.8883 76.4517C70.8883 76.1392 70.9499 75.8859 71.073 75.6918C71.1961 75.4953 71.3606 75.3414 71.5666 75.2301C71.7725 75.1188 71.9998 75.036 72.2484 74.9815C72.4993 74.9247 72.7515 74.8797 73.0048 74.8466C73.3362 74.804 73.6049 74.772 73.8109 74.7507C74.0192 74.727 74.1708 74.688 74.2654 74.6335C74.3625 74.5791 74.411 74.4844 74.411 74.3494V74.321C74.411 73.9706 74.3152 73.6984 74.1234 73.5043C73.934 73.3101 73.6464 73.2131 73.2605 73.2131C72.8604 73.2131 72.5467 73.3007 72.3194 73.4759C72.0922 73.651 71.9324 73.8381 71.84 74.0369L71.0446 73.7528C71.1866 73.4214 71.376 73.1634 71.6127 72.9787C71.8519 72.7917 72.1123 72.6615 72.394 72.5881C72.6781 72.5123 72.9574 72.4744 73.2321 72.4744C73.4073 72.4744 73.6085 72.4957 73.8358 72.5384C74.0654 72.5786 74.2868 72.6626 74.4998 72.7905C74.7153 72.9183 74.894 73.1113 75.036 73.3693C75.1781 73.6274 75.2491 73.973 75.2491 74.4062V78H74.411V77.2614H74.3684C74.3116 77.3797 74.2169 77.5064 74.0843 77.6413C73.9518 77.7763 73.7754 77.8911 73.5552 77.9858C73.335 78.0805 73.0663 78.1278 72.7491 78.1278ZM72.877 77.375C73.2084 77.375 73.4877 77.3099 73.715 77.1797C73.9447 77.0495 74.1175 76.8814 74.2335 76.6754C74.3519 76.4695 74.411 76.2528 74.411 76.0256V75.2585C74.3755 75.3011 74.2974 75.3402 74.1767 75.3757C74.0583 75.4089 73.921 75.4384 73.7647 75.4645C73.6109 75.4882 73.4605 75.5095 73.3137 75.5284C73.1693 75.545 73.0521 75.5592 72.9622 75.571C72.7444 75.5994 72.5408 75.6456 72.3514 75.7095C72.1644 75.7711 72.0128 75.8646 71.8968 75.9901C71.7832 76.1132 71.7264 76.2812 71.7264 76.4943C71.7264 76.7855 71.8341 77.0057 72.0495 77.1548C72.2673 77.3016 72.5431 77.375 72.877 77.375ZM76.7788 78V72.5455H77.5884V73.3977H77.6594C77.7731 73.1065 77.9566 72.8804 78.2099 72.7195C78.4632 72.5561 78.7674 72.4744 79.1225 72.4744C79.4824 72.4744 79.7818 72.5561 80.021 72.7195C80.2624 72.8804 80.4506 73.1065 80.5856 73.3977H80.6424C80.7821 73.116 80.9916 72.8923 81.271 72.7266C81.5503 72.5585 81.8853 72.4744 82.2759 72.4744C82.7636 72.4744 83.1625 72.6271 83.4727 72.9325C83.7828 73.2356 83.9379 73.7079 83.9379 74.3494V78H83.0998V74.3494C83.0998 73.947 82.9897 73.6593 82.7695 73.4865C82.5494 73.3137 82.2901 73.2273 81.9918 73.2273C81.6083 73.2273 81.3112 73.3433 81.1005 73.5753C80.8898 73.8049 80.7844 74.0961 80.7844 74.4489V78H79.9322V74.2642C79.9322 73.9541 79.8316 73.7043 79.6303 73.5149C79.4291 73.3232 79.1699 73.2273 78.8526 73.2273C78.6348 73.2273 78.4312 73.2853 78.2418 73.4013C78.0548 73.5173 77.9033 73.6783 77.7873 73.8842C77.6737 74.0878 77.6168 74.3234 77.6168 74.5909V78H76.7788ZM85.4702 78V72.5455H86.3082V78H85.4702ZM85.8963 71.6364C85.733 71.6364 85.5921 71.5807 85.4737 71.4695C85.3577 71.3582 85.2997 71.2244 85.2997 71.0682C85.2997 70.9119 85.3577 70.7782 85.4737 70.6669C85.5921 70.5556 85.733 70.5 85.8963 70.5C86.0597 70.5 86.1993 70.5556 86.3153 70.6669C86.4337 70.7782 86.4929 70.9119 86.4929 71.0682C86.4929 71.2244 86.4337 71.3582 86.3153 71.4695C86.1993 71.5807 86.0597 71.6364 85.8963 71.6364ZM88.6813 74.7188V78H87.8432V72.5455H88.6529V73.3977H88.7239C88.8517 73.1207 89.0459 72.8982 89.3063 72.7301C89.5667 72.5597 89.9029 72.4744 90.3148 72.4744C90.6841 72.4744 91.0073 72.5502 91.2843 72.7017C91.5613 72.8509 91.7767 73.0781 91.9306 73.3835C92.0845 73.6866 92.1614 74.0701 92.1614 74.5341V78H91.3233V74.5909C91.3233 74.1624 91.2121 73.8286 90.9895 73.5895C90.767 73.348 90.4616 73.2273 90.0733 73.2273C89.8058 73.2273 89.5667 73.2853 89.356 73.4013C89.1477 73.5173 88.9831 73.6866 88.8624 73.9091C88.7417 74.1316 88.6813 74.4015 88.6813 74.7188ZM95.2979 78.1278C94.9523 78.1278 94.6386 78.0627 94.3569 77.9325C94.0752 77.8 93.8514 77.6094 93.6857 77.3608C93.52 77.1098 93.4371 76.8068 93.4371 76.4517C93.4371 76.1392 93.4987 75.8859 93.6218 75.6918C93.7449 75.4953 93.9094 75.3414 94.1154 75.2301C94.3214 75.1188 94.5487 75.036 94.7972 74.9815C95.0482 74.9247 95.3003 74.8797 95.5536 74.8466C95.8851 74.804 96.1538 74.772 96.3597 74.7507C96.5681 74.727 96.7196 74.688 96.8143 74.6335C96.9113 74.5791 96.9599 74.4844 96.9599 74.3494V74.321C96.9599 73.9706 96.864 73.6984 96.6722 73.5043C96.4828 73.3101 96.1952 73.2131 95.8093 73.2131C95.4092 73.2131 95.0955 73.3007 94.8683 73.4759C94.641 73.651 94.4812 73.8381 94.3888 74.0369L93.5934 73.7528C93.7354 73.4214 93.9248 73.1634 94.1616 72.9787C94.4007 72.7917 94.6611 72.6615 94.9428 72.5881C95.2269 72.5123 95.5063 72.4744 95.7809 72.4744C95.9561 72.4744 96.1573 72.4957 96.3846 72.5384C96.6142 72.5786 96.8356 72.6626 97.0487 72.7905C97.2641 72.9183 97.4428 73.1113 97.5849 73.3693C97.7269 73.6274 97.7979 73.973 97.7979 74.4062V78H96.9599V77.2614H96.9173C96.8604 77.3797 96.7657 77.5064 96.6332 77.6413C96.5006 77.7763 96.3242 77.8911 96.104 77.9858C95.8839 78.0805 95.6152 78.1278 95.2979 78.1278ZM95.4258 77.375C95.7572 77.375 96.0366 77.3099 96.2638 77.1797C96.4935 77.0495 96.6663 76.8814 96.7823 76.6754C96.9007 76.4695 96.9599 76.2528 96.9599 76.0256V75.2585C96.9244 75.3011 96.8462 75.3402 96.7255 75.3757C96.6071 75.4089 96.4698 75.4384 96.3136 75.4645C96.1597 75.4882 96.0094 75.5095 95.8626 75.5284C95.7182 75.545 95.601 75.5592 95.511 75.571C95.2932 75.5994 95.0896 75.6456 94.9002 75.7095C94.7132 75.7711 94.5617 75.8646 94.4457 75.9901C94.332 76.1132 94.2752 76.2812 94.2752 76.4943C94.2752 76.7855 94.3829 77.0057 94.5984 77.1548C94.8162 77.3016 95.092 77.375 95.4258 77.375ZM101.7 72.5455V73.2557H98.873V72.5455H101.7ZM99.6969 71.2386H100.535V76.4375C100.535 76.6742 100.569 76.8518 100.638 76.9702C100.709 77.0862 100.799 77.1643 100.908 77.2045C101.019 77.2424 101.136 77.2614 101.259 77.2614C101.352 77.2614 101.427 77.2566 101.487 77.2472C101.546 77.2353 101.593 77.2259 101.629 77.2188L101.799 77.9716C101.742 77.9929 101.663 78.0142 101.561 78.0355C101.459 78.0592 101.33 78.071 101.174 78.071C100.937 78.071 100.705 78.0201 100.478 77.9183C100.253 77.8165 100.066 77.6615 99.9171 77.4531C99.7703 77.2448 99.6969 76.982 99.6969 76.6648V71.2386ZM102.96 78V72.5455H103.798V78H102.96ZM103.387 71.6364C103.223 71.6364 103.082 71.5807 102.964 71.4695C102.848 71.3582 102.79 71.2244 102.79 71.0682C102.79 70.9119 102.848 70.7782 102.964 70.6669C103.082 70.5556 103.223 70.5 103.387 70.5C103.55 70.5 103.69 70.5556 103.806 70.6669C103.924 70.7782 103.983 70.9119 103.983 71.0682C103.983 71.2244 103.924 71.3582 103.806 71.4695C103.69 71.5807 103.55 71.6364 103.387 71.6364ZM107.549 78.1136C107.057 78.1136 106.625 77.9964 106.253 77.7621C105.884 77.5277 105.595 77.1998 105.387 76.7784C105.181 76.357 105.078 75.8646 105.078 75.3011C105.078 74.733 105.181 74.237 105.387 73.8132C105.595 73.3894 105.884 73.0604 106.253 72.826C106.625 72.5916 107.057 72.4744 107.549 72.4744C108.042 72.4744 108.473 72.5916 108.842 72.826C109.214 73.0604 109.502 73.3894 109.708 73.8132C109.917 74.237 110.021 74.733 110.021 75.3011C110.021 75.8646 109.917 76.357 109.708 76.7784C109.502 77.1998 109.214 77.5277 108.842 77.7621C108.473 77.9964 108.042 78.1136 107.549 78.1136ZM107.549 77.3608C107.923 77.3608 108.231 77.2649 108.473 77.0732C108.714 76.8814 108.893 76.6293 109.009 76.3168C109.125 76.0043 109.183 75.6657 109.183 75.3011C109.183 74.9366 109.125 74.5968 109.009 74.282C108.893 73.9671 108.714 73.7126 108.473 73.5185C108.231 73.3243 107.923 73.2273 107.549 73.2273C107.175 73.2273 106.868 73.3243 106.626 73.5185C106.385 73.7126 106.206 73.9671 106.09 74.282C105.974 74.5968 105.916 74.9366 105.916 75.3011C105.916 75.6657 105.974 76.0043 106.09 76.3168C106.206 76.6293 106.385 76.8814 106.626 77.0732C106.868 77.2649 107.175 77.3608 107.549 77.3608ZM112.138 74.7188V78H111.3V72.5455H112.11V73.3977H112.181C112.309 73.1207 112.503 72.8982 112.763 72.7301C113.024 72.5597 113.36 72.4744 113.772 72.4744C114.141 72.4744 114.464 72.5502 114.741 72.7017C115.018 72.8509 115.234 73.0781 115.388 73.3835C115.541 73.6866 115.618 74.0701 115.618 74.5341V78H114.78V74.5909C114.78 74.1624 114.669 73.8286 114.447 73.5895C114.224 73.348 113.919 73.2273 113.53 73.2273C113.263 73.2273 113.024 73.2853 112.813 73.4013C112.605 73.5173 112.44 73.6866 112.319 73.9091C112.199 74.1316 112.138 74.4015 112.138 74.7188Z" fill="#08190E"/>
<defs>
<filter id="filter0_d_712_3700" x="0" y="0" width="217.922" height="151.656" filterUnits="userSpaceOnUse" color-interpolation-filters="sRGB">
<feFlood flood-opacity="0" result="BackgroundImageFix"/>
<feColorMatrix in="SourceAlpha" type="matrix" values="0 0 0 0 0 0 0 0 0 0 0 0 0 0 0 0 0 0 127 0" result="hardAlpha"/>
<feOffset dy="4"/>
<feGaussianBlur stdDeviation="12.5"/>
<feComposite in2="hardAlpha" operator="out"/>
<feColorMatrix type="matrix" values="0 0 0 0 0.85098 0 0 0 0 0.85098 0 0 0 0 0.85098 0 0 0 0.57 0"/>
<feBlend mode="normal" in2="BackgroundImageFix" result="effect1_dropShadow_712_3700"/>
<feBlend mode="normal" in="SourceGraphic" in2="effect1_dropShadow_712_3700" result="shape"/>
</filter>
<clipPath id="clip0_712_3700">
<rect width="16" height="16" fill="white" transform="translate(35 27)"/>
</clipPath>
<clipPath id="clip1_712_3700">
<rect width="16" height="16" fill="white" transform="translate(35 47)"/>
</clipPath>
<clipPath id="clip2_712_3700">
<rect width="16" height="16" fill="white" transform="translate(35 67)"/>
</clipPath>
</defs>
</svg>
