<svg width="124" height="118" viewBox="0 0 124 118" fill="none" xmlns="http://www.w3.org/2000/svg">
<rect width="124" height="118" rx="10" fill="#DFFFCD"/>
<path d="M13.6534 13.7273H14.5341V18.5426C14.5341 19.0398 14.4169 19.4837 14.1825 19.8743C13.9505 20.2625 13.6226 20.5691 13.1989 20.794C12.7751 21.0166 12.2779 21.1278 11.7074 21.1278C11.1368 21.1278 10.6397 21.0166 10.2159 20.794C9.79214 20.5691 9.46307 20.2625 9.22869 19.8743C8.99669 19.4837 8.88068 19.0398 8.88068 18.5426V13.7273H9.76136V18.4716C9.76136 18.8267 9.83949 19.1428 9.99574 19.4197C10.152 19.6944 10.3745 19.911 10.6634 20.0696C10.9545 20.2259 11.3026 20.304 11.7074 20.304C12.1122 20.304 12.4602 20.2259 12.7514 20.0696C13.0426 19.911 13.2652 19.6944 13.419 19.4197C13.5753 19.1428 13.6534 18.8267 13.6534 18.4716V13.7273ZM20.0428 16.767L19.29 16.9801C19.2426 16.8546 19.1728 16.7327 19.0804 16.6143C18.9905 16.4936 18.8674 16.3942 18.7111 16.3161C18.5549 16.2379 18.3548 16.1989 18.111 16.1989C17.7772 16.1989 17.499 16.2758 17.2765 16.4297C17.0563 16.5812 16.9462 16.7741 16.9462 17.0085C16.9462 17.2169 17.022 17.3814 17.1735 17.5021C17.325 17.6229 17.5617 17.7235 17.8837 17.804L18.6934 18.0028C19.181 18.1212 19.5444 18.3023 19.7836 18.5462C20.0227 18.7876 20.1422 19.099 20.1422 19.4801C20.1422 19.7926 20.0523 20.072 19.8723 20.3182C19.6948 20.5644 19.4462 20.7585 19.1266 20.9006C18.807 21.0426 18.4353 21.1136 18.0115 21.1136C17.4552 21.1136 16.9947 20.9929 16.6301 20.7514C16.2656 20.5099 16.0347 20.1572 15.9377 19.6932L16.7331 19.4943C16.8089 19.7879 16.9521 20.008 17.1628 20.1548C17.3759 20.3016 17.6541 20.375 17.9973 20.375C18.388 20.375 18.6981 20.2921 18.9277 20.1264C19.1597 19.9583 19.2757 19.7571 19.2757 19.5227C19.2757 19.3333 19.2095 19.1747 19.0769 19.0469C18.9443 18.9167 18.7407 18.8196 18.4661 18.7557L17.557 18.5426C17.0575 18.4242 16.6905 18.2408 16.4561 17.9922C16.2241 17.7412 16.1081 17.4276 16.1081 17.0511C16.1081 16.7434 16.1945 16.4711 16.3674 16.2344C16.5426 15.9976 16.7805 15.8118 17.0811 15.6768C17.3842 15.5419 17.7275 15.4744 18.111 15.4744C18.6507 15.4744 19.0745 15.5928 19.3823 15.8295C19.6924 16.0663 19.9126 16.3788 20.0428 16.767ZM23.6907 21.1136C23.1651 21.1136 22.7118 20.9976 22.3306 20.7656C21.9518 20.5312 21.6594 20.2045 21.4535 19.7855C21.2499 19.3641 21.1481 18.8741 21.1481 18.3153C21.1481 17.7566 21.2499 17.2642 21.4535 16.8381C21.6594 16.4096 21.9459 16.0758 22.3129 15.8366C22.6822 15.5952 23.113 15.4744 23.6055 15.4744C23.8896 15.4744 24.1701 15.5218 24.4471 15.6165C24.7241 15.7112 24.9762 15.8651 25.2035 16.0781C25.4308 16.2888 25.6119 16.5682 25.7468 16.9162C25.8817 17.2642 25.9492 17.6927 25.9492 18.2017V18.5568H21.7447V17.8324H25.0969C25.0969 17.5246 25.0354 17.25 24.9123 17.0085C24.7915 16.767 24.6187 16.5765 24.3938 16.4368C24.1713 16.2971 23.9085 16.2273 23.6055 16.2273C23.2717 16.2273 22.9828 16.3101 22.739 16.4759C22.4975 16.6392 22.3117 16.8523 22.1815 17.1151C22.0513 17.3778 21.9862 17.6596 21.9862 17.9602V18.4432C21.9862 18.8551 22.0572 19.2043 22.1992 19.4908C22.3436 19.7749 22.5437 19.9915 22.7994 20.1406C23.055 20.2874 23.3522 20.3608 23.6907 20.3608C23.9109 20.3608 24.1097 20.33 24.2873 20.2685C24.4672 20.2045 24.6223 20.1098 24.7525 19.9844C24.8827 19.8565 24.9833 19.6979 25.0543 19.5085L25.864 19.7358C25.7788 20.0104 25.6355 20.2519 25.4343 20.4602C25.2331 20.6662 24.9845 20.8272 24.6886 20.9432C24.3926 21.0568 24.06 21.1136 23.6907 21.1136ZM27.2241 21V15.5455H28.0337V16.3693H28.0906C28.19 16.0994 28.3699 15.8804 28.6303 15.7124C28.8907 15.5443 29.1843 15.4602 29.511 15.4602C29.5726 15.4602 29.6495 15.4614 29.7418 15.4638C29.8342 15.4661 29.904 15.4697 29.9513 15.4744V16.3267C29.9229 16.3196 29.8578 16.3089 29.756 16.2947C29.6566 16.2782 29.5513 16.2699 29.44 16.2699C29.1748 16.2699 28.9381 16.3255 28.7298 16.4368C28.5238 16.5457 28.3604 16.6972 28.2397 16.8913C28.1213 17.0831 28.0621 17.3021 28.0621 17.5483V21H27.2241ZM34.8084 16.767L34.0556 16.9801C34.0082 16.8546 33.9384 16.7327 33.8461 16.6143C33.7561 16.4936 33.633 16.3942 33.4767 16.3161C33.3205 16.2379 33.1204 16.1989 32.8766 16.1989C32.5428 16.1989 32.2646 16.2758 32.0421 16.4297C31.8219 16.5812 31.7118 16.7741 31.7118 17.0085C31.7118 17.2169 31.7876 17.3814 31.9391 17.5021C32.0906 17.6229 32.3274 17.7235 32.6493 17.804L33.459 18.0028C33.9467 18.1212 34.3101 18.3023 34.5492 18.5462C34.7883 18.7876 34.9078 19.099 34.9078 19.4801C34.9078 19.7926 34.8179 20.072 34.638 20.3182C34.4604 20.5644 34.2118 20.7585 33.8922 20.9006C33.5726 21.0426 33.2009 21.1136 32.7772 21.1136C32.2208 21.1136 31.7604 20.9929 31.3958 20.7514C31.0312 20.5099 30.8004 20.1572 30.7033 19.6932L31.4988 19.4943C31.5745 19.7879 31.7177 20.008 31.9284 20.1548C32.1415 20.3016 32.4197 20.375 32.763 20.375C33.1536 20.375 33.4637 20.2921 33.6934 20.1264C33.9254 19.9583 34.0414 19.7571 34.0414 19.5227C34.0414 19.3333 33.9751 19.1747 33.8425 19.0469C33.7099 18.9167 33.5063 18.8196 33.2317 18.7557L32.3226 18.5426C31.8231 18.4242 31.4561 18.2408 31.2218 17.9922C30.9898 17.7412 30.8738 17.4276 30.8738 17.0511C30.8738 16.7434 30.9602 16.4711 31.133 16.2344C31.3082 15.9976 31.5461 15.8118 31.8468 15.6768C32.1498 15.5419 32.4931 15.4744 32.8766 15.4744C33.4164 15.4744 33.8401 15.5928 34.1479 15.8295C34.458 16.0663 34.6782 16.3788 34.8084 16.767ZM40.587 21.1278C40.2414 21.1278 39.9277 21.0627 39.646 20.9325C39.3642 20.8 39.1405 20.6094 38.9748 20.3608C38.8091 20.1098 38.7262 19.8068 38.7262 19.4517C38.7262 19.1392 38.7878 18.8859 38.9109 18.6918C39.034 18.4953 39.1985 18.3414 39.4045 18.2301C39.6104 18.1188 39.8377 18.036 40.0863 17.9815C40.3372 17.9247 40.5894 17.8797 40.8427 17.8466C41.1741 17.804 41.4428 17.772 41.6488 17.7507C41.8571 17.727 42.0086 17.688 42.1033 17.6335C42.2004 17.5791 42.2489 17.4844 42.2489 17.3494V17.321C42.2489 16.9706 42.1531 16.6984 41.9613 16.5043C41.7719 16.3101 41.4843 16.2131 41.0984 16.2131C40.6983 16.2131 40.3846 16.3007 40.1573 16.4759C39.93 16.651 39.7702 16.8381 39.6779 17.0369L38.8825 16.7528C39.0245 16.4214 39.2139 16.1634 39.4506 15.9787C39.6897 15.7917 39.9502 15.6615 40.2319 15.5881C40.516 15.5123 40.7953 15.4744 41.07 15.4744C41.2451 15.4744 41.4464 15.4957 41.6737 15.5384C41.9033 15.5786 42.1246 15.6626 42.3377 15.7905C42.5531 15.9183 42.7319 16.1113 42.8739 16.3693C43.016 16.6274 43.087 16.973 43.087 17.4062V21H42.2489V20.2614H42.2063C42.1495 20.3797 42.0548 20.5064 41.9222 20.6413C41.7897 20.7763 41.6133 20.8911 41.3931 20.9858C41.1729 21.0805 40.9042 21.1278 40.587 21.1278ZM40.7148 20.375C41.0463 20.375 41.3256 20.3099 41.5529 20.1797C41.7826 20.0495 41.9554 19.8814 42.0714 19.6754C42.1897 19.4695 42.2489 19.2528 42.2489 19.0256V18.2585C42.2134 18.3011 42.1353 18.3402 42.0146 18.3757C41.8962 18.4089 41.7589 18.4384 41.6026 18.4645C41.4487 18.4882 41.2984 18.5095 41.1516 18.5284C41.0072 18.545 40.89 18.5592 40.8001 18.571C40.5823 18.5994 40.3787 18.6456 40.1893 18.7095C40.0022 18.7711 39.8507 18.8646 39.7347 18.9901C39.6211 19.1132 39.5643 19.2812 39.5643 19.4943C39.5643 19.7855 39.672 20.0057 39.8874 20.1548C40.1052 20.3016 40.381 20.375 40.7148 20.375ZM46.8326 21.1136C46.3212 21.1136 45.8809 20.9929 45.5115 20.7514C45.1422 20.5099 44.8581 20.1773 44.6593 19.7536C44.4604 19.3298 44.361 18.8456 44.361 18.3011C44.361 17.7472 44.4628 17.2583 44.6664 16.8345C44.8723 16.4084 45.1588 16.0758 45.5257 15.8366C45.8951 15.5952 46.3259 15.4744 46.8184 15.4744C47.2019 15.4744 47.5475 15.5455 47.8553 15.6875C48.1631 15.8295 48.4152 16.0284 48.6117 16.2841C48.8082 16.5398 48.9301 16.8381 48.9775 17.179H48.1394C48.0755 16.9304 47.9334 16.7102 47.7132 16.5185C47.4954 16.3243 47.2019 16.2273 46.8326 16.2273C46.5059 16.2273 46.2194 16.3125 45.9732 16.483C45.7293 16.651 45.5388 16.889 45.4015 17.1967C45.2665 17.5021 45.199 17.8608 45.199 18.2727C45.199 18.6941 45.2653 19.0611 45.3979 19.3736C45.5328 19.6861 45.7222 19.9287 45.9661 20.1016C46.2123 20.2744 46.5011 20.3608 46.8326 20.3608C47.0504 20.3608 47.248 20.3229 47.4256 20.2472C47.6032 20.1714 47.7535 20.0625 47.8766 19.9205C47.9997 19.7784 48.0873 19.608 48.1394 19.4091H48.9775C48.9301 19.7311 48.8129 20.0211 48.6259 20.2791C48.4412 20.5348 48.1962 20.7384 47.8908 20.8899C47.5878 21.0391 47.235 21.1136 46.8326 21.1136ZM52.4185 21.1136C51.9071 21.1136 51.4668 20.9929 51.0975 20.7514C50.7282 20.5099 50.4441 20.1773 50.2452 19.7536C50.0463 19.3298 49.9469 18.8456 49.9469 18.3011C49.9469 17.7472 50.0487 17.2583 50.2523 16.8345C50.4583 16.4084 50.7447 16.0758 51.1117 15.8366C51.481 15.5952 51.9119 15.4744 52.4043 15.4744C52.7878 15.4744 53.1335 15.5455 53.4412 15.6875C53.749 15.8295 54.0011 16.0284 54.1976 16.2841C54.3941 16.5398 54.516 16.8381 54.5634 17.179H53.7253C53.6614 16.9304 53.5194 16.7102 53.2992 16.5185C53.0814 16.3243 52.7878 16.2273 52.4185 16.2273C52.0918 16.2273 51.8053 16.3125 51.5591 16.483C51.3153 16.651 51.1247 16.889 50.9874 17.1967C50.8525 17.5021 50.785 17.8608 50.785 18.2727C50.785 18.6941 50.8513 19.0611 50.9838 19.3736C51.1188 19.6861 51.3082 19.9287 51.552 20.1016C51.7982 20.2744 52.0871 20.3608 52.4185 20.3608C52.6363 20.3608 52.834 20.3229 53.0115 20.2472C53.1891 20.1714 53.3394 20.0625 53.4625 19.9205C53.5856 19.7784 53.6732 19.608 53.7253 19.4091H54.5634C54.516 19.7311 54.3989 20.0211 54.2118 20.2791C54.0272 20.5348 53.7821 20.7384 53.4767 20.8899C53.1737 21.0391 52.821 21.1136 52.4185 21.1136ZM58.0755 21.1136C57.5499 21.1136 57.0965 20.9976 56.7154 20.7656C56.3366 20.5312 56.0442 20.2045 55.8382 19.7855C55.6346 19.3641 55.5328 18.8741 55.5328 18.3153C55.5328 17.7566 55.6346 17.2642 55.8382 16.8381C56.0442 16.4096 56.3307 16.0758 56.6976 15.8366C57.0669 15.5952 57.4978 15.4744 57.9902 15.4744C58.2743 15.4744 58.5549 15.5218 58.8319 15.6165C59.1088 15.7112 59.361 15.8651 59.5882 16.0781C59.8155 16.2888 59.9966 16.5682 60.1316 16.9162C60.2665 17.2642 60.334 17.6927 60.334 18.2017V18.5568H56.1294V17.8324H59.4817C59.4817 17.5246 59.4202 17.25 59.2971 17.0085C59.1763 16.767 59.0035 16.5765 58.7786 16.4368C58.556 16.2971 58.2933 16.2273 57.9902 16.2273C57.6564 16.2273 57.3676 16.3101 57.1238 16.4759C56.8823 16.6392 56.6964 16.8523 56.5662 17.1151C56.436 17.3778 56.3709 17.6596 56.3709 17.9602V18.4432C56.3709 18.8551 56.4419 19.2043 56.584 19.4908C56.7284 19.7749 56.9284 19.9915 57.1841 20.1406C57.4398 20.2874 57.7369 20.3608 58.0755 20.3608C58.2956 20.3608 58.4945 20.33 58.6721 20.2685C58.852 20.2045 59.007 20.1098 59.1373 19.9844C59.2675 19.8565 59.3681 19.6979 59.4391 19.5085L60.2488 19.7358C60.1635 20.0104 60.0203 20.2519 59.8191 20.4602C59.6178 20.6662 59.3693 20.8272 59.0733 20.9432C58.7774 21.0568 58.4448 21.1136 58.0755 21.1136ZM65.4725 16.767L64.7196 16.9801C64.6723 16.8546 64.6025 16.7327 64.5101 16.6143C64.4202 16.4936 64.2971 16.3942 64.1408 16.3161C63.9846 16.2379 63.7845 16.1989 63.5407 16.1989C63.2069 16.1989 62.9287 16.2758 62.7061 16.4297C62.486 16.5812 62.3759 16.7741 62.3759 17.0085C62.3759 17.2169 62.4516 17.3814 62.6032 17.5021C62.7547 17.6229 62.9914 17.7235 63.3134 17.804L64.123 18.0028C64.6107 18.1212 64.9741 18.3023 65.2132 18.5462C65.4524 18.7876 65.5719 19.099 65.5719 19.4801C65.5719 19.7926 65.4819 20.072 65.302 20.3182C65.1245 20.5644 64.8759 20.7585 64.5563 20.9006C64.2367 21.0426 63.865 21.1136 63.4412 21.1136C62.8849 21.1136 62.4244 20.9929 62.0598 20.7514C61.6953 20.5099 61.4644 20.1572 61.3674 19.6932L62.1628 19.4943C62.2386 19.7879 62.3818 20.008 62.5925 20.1548C62.8056 20.3016 63.0837 20.375 63.427 20.375C63.8176 20.375 64.1278 20.2921 64.3574 20.1264C64.5894 19.9583 64.7054 19.7571 64.7054 19.5227C64.7054 19.3333 64.6391 19.1747 64.5066 19.0469C64.374 18.9167 64.1704 18.8196 63.8958 18.7557L62.9867 18.5426C62.4872 18.4242 62.1202 18.2408 61.8858 17.9922C61.6538 17.7412 61.5378 17.4276 61.5378 17.0511C61.5378 16.7434 61.6242 16.4711 61.7971 16.2344C61.9722 15.9976 62.2102 15.8118 62.5108 15.6768C62.8139 15.5419 63.1571 15.4744 63.5407 15.4744C64.0804 15.4744 64.5042 15.5928 64.812 15.8295C65.1221 16.0663 65.3423 16.3788 65.4725 16.767ZM70.6971 16.767L69.9442 16.9801C69.8969 16.8546 69.8271 16.7327 69.7347 16.6143C69.6448 16.4936 69.5217 16.3942 69.3654 16.3161C69.2092 16.2379 69.0091 16.1989 68.7653 16.1989C68.4315 16.1989 68.1533 16.2758 67.9308 16.4297C67.7106 16.5812 67.6005 16.7741 67.6005 17.0085C67.6005 17.2169 67.6763 17.3814 67.8278 17.5021C67.9793 17.6229 68.216 17.7235 68.538 17.804L69.3477 18.0028C69.8353 18.1212 70.1987 18.3023 70.4379 18.5462C70.677 18.7876 70.7965 19.099 70.7965 19.4801C70.7965 19.7926 70.7066 20.072 70.5266 20.3182C70.3491 20.5644 70.1005 20.7585 69.7809 20.9006C69.4613 21.0426 69.0896 21.1136 68.6658 21.1136C68.1095 21.1136 67.649 20.9929 67.2844 20.7514C66.9199 20.5099 66.689 20.1572 66.592 19.6932L67.3874 19.4943C67.4632 19.7879 67.6064 20.008 67.8171 20.1548C68.0302 20.3016 68.3084 20.375 68.6516 20.375C69.0423 20.375 69.3524 20.2921 69.582 20.1264C69.814 19.9583 69.93 19.7571 69.93 19.5227C69.93 19.3333 69.8638 19.1747 69.7312 19.0469C69.5986 18.9167 69.395 18.8196 69.1204 18.7557L68.2113 18.5426C67.7118 18.4242 67.3448 18.2408 67.1104 17.9922C66.8784 17.7412 66.7624 17.4276 66.7624 17.0511C66.7624 16.7434 66.8488 16.4711 67.0217 16.2344C67.1969 15.9976 67.4348 15.8118 67.7354 15.6768C68.0385 15.5419 68.3817 15.4744 68.7653 15.4744C69.305 15.4744 69.7288 15.5928 70.0366 15.8295C70.3467 16.0663 70.5669 16.3788 70.6971 16.767Z" fill="#08190E"/>
<line x1="8" y1="28.5" x2="116" y2="28.5" stroke="#08190E" stroke-opacity="0.5"/>
<path d="M12.858 50.5455C12.8153 50.1856 12.6425 49.9062 12.3395 49.7074C12.0365 49.5085 11.6648 49.4091 11.2244 49.4091C10.9025 49.4091 10.6207 49.4612 10.3793 49.5653C10.1402 49.6695 9.95313 49.8127 9.81818 49.995C9.68561 50.1773 9.61932 50.3845 9.61932 50.6165C9.61932 50.8106 9.66548 50.9775 9.75781 51.1172C9.85251 51.2545 9.97325 51.3693 10.12 51.4616C10.2668 51.5516 10.4207 51.6262 10.5817 51.6854C10.7427 51.7422 10.8906 51.7884 11.0256 51.8239L11.7642 52.0227C11.9536 52.0724 12.1643 52.1411 12.3963 52.2287C12.6307 52.3163 12.8544 52.4358 13.0675 52.5874C13.2829 52.7365 13.4605 52.9283 13.6001 53.1626C13.7398 53.397 13.8097 53.6847 13.8097 54.0256C13.8097 54.4186 13.7067 54.7737 13.5007 55.0909C13.2971 55.4081 12.9988 55.6603 12.6058 55.8473C12.2152 56.0343 11.7405 56.1278 11.1818 56.1278C10.661 56.1278 10.21 56.0438 9.82884 55.8757C9.45005 55.7076 9.15175 55.4732 8.93395 55.1726C8.71851 54.8719 8.59659 54.5227 8.56818 54.125H9.47727C9.50095 54.3996 9.59328 54.6269 9.75426 54.8068C9.91761 54.9844 10.1236 55.117 10.3722 55.2045C10.6231 55.2898 10.893 55.3324 11.1818 55.3324C11.518 55.3324 11.8198 55.2779 12.0874 55.169C12.3549 55.0578 12.5668 54.9039 12.723 54.7074C12.8793 54.5085 12.9574 54.2765 12.9574 54.0114C12.9574 53.7699 12.8899 53.5734 12.755 53.4219C12.62 53.2704 12.4425 53.1473 12.2223 53.0526C12.0021 52.9579 11.7642 52.875 11.5085 52.804L10.6136 52.5483C10.0455 52.3849 9.59564 52.1518 9.2642 51.8487C8.93277 51.5457 8.76705 51.1491 8.76705 50.6591C8.76705 50.2519 8.87713 49.8968 9.0973 49.5938C9.31984 49.2884 9.61813 49.0516 9.99219 48.8835C10.3686 48.7131 10.7888 48.6278 11.2528 48.6278C11.7216 48.6278 12.1383 48.7119 12.5028 48.88C12.8674 49.0457 13.1563 49.273 13.3693 49.5618C13.5848 49.8506 13.6984 50.1785 13.7102 50.5455H12.858ZM17.5162 50.5455V51.2557H14.6895V50.5455H17.5162ZM15.5133 49.2386H16.3514V54.4375C16.3514 54.6742 16.3857 54.8518 16.4544 54.9702C16.5254 55.0862 16.6154 55.1643 16.7243 55.2045C16.8355 55.2424 16.9527 55.2614 17.0758 55.2614C17.1681 55.2614 17.2439 55.2566 17.3031 55.2472C17.3623 55.2353 17.4096 55.2259 17.4451 55.2188L17.6156 55.9716C17.5588 55.9929 17.4795 56.0142 17.3777 56.0355C17.2759 56.0592 17.1468 56.071 16.9906 56.071C16.7538 56.071 16.5218 56.0201 16.2946 55.9183C16.0697 55.8165 15.8826 55.6615 15.7335 55.4531C15.5867 55.2448 15.5133 54.982 15.5133 54.6648V49.2386ZM22.2143 53.7699V50.5455H23.0524V56H22.2143V55.0767H22.1575C22.0297 55.3537 21.8308 55.5893 21.5609 55.7834C21.291 55.9751 20.9501 56.071 20.5382 56.071C20.1973 56.071 19.8942 55.9964 19.6291 55.8473C19.3639 55.6958 19.1556 55.4685 19.0041 55.1655C18.8526 54.8601 18.7768 54.4754 18.7768 54.0114V50.5455H19.6149V53.9545C19.6149 54.3523 19.7261 54.6695 19.9487 54.9062C20.1736 55.143 20.46 55.2614 20.8081 55.2614C21.0164 55.2614 21.2283 55.2081 21.4437 55.1016C21.6615 54.995 21.8438 54.8317 21.9906 54.6115C22.1397 54.3913 22.2143 54.1108 22.2143 53.7699ZM26.647 56.1136C26.1925 56.1136 25.7912 55.9988 25.4432 55.7692C25.0952 55.5372 24.8229 55.2105 24.6264 54.7891C24.4299 54.3653 24.3317 53.8646 24.3317 53.2869C24.3317 52.714 24.4299 52.2169 24.6264 51.7955C24.8229 51.3741 25.0964 51.0485 25.4467 50.8189C25.7971 50.5893 26.2019 50.4744 26.6612 50.4744C27.0163 50.4744 27.2969 50.5336 27.5028 50.652C27.7112 50.768 27.8698 50.9006 27.9787 51.0497C28.09 51.1965 28.1764 51.3172 28.2379 51.4119H28.3089V48.7273H29.147V56H28.3374V55.1619H28.2379C28.1764 55.2614 28.0888 55.3868 27.9751 55.5384C27.8615 55.6875 27.6993 55.8213 27.4886 55.9396C27.2779 56.0556 26.9974 56.1136 26.647 56.1136ZM26.7607 55.3608C27.0968 55.3608 27.3809 55.2732 27.6129 55.098C27.8449 54.9205 28.0213 54.6754 28.142 54.3629C28.2628 54.0481 28.3232 53.6847 28.3232 53.2727C28.3232 52.8655 28.264 52.5092 28.1456 52.2038C28.0272 51.8961 27.852 51.657 27.62 51.4865C27.388 51.3137 27.1016 51.2273 26.7607 51.2273C26.4055 51.2273 26.1096 51.3184 25.8729 51.5007C25.6385 51.6806 25.4621 51.9257 25.3438 52.2358C25.2277 52.5436 25.1697 52.8892 25.1697 53.2727C25.1697 53.661 25.2289 54.0137 25.3473 54.331C25.468 54.6458 25.6456 54.8968 25.88 55.0838C26.1167 55.2685 26.4103 55.3608 26.7607 55.3608ZM33.0852 56.1136C32.5597 56.1136 32.1063 55.9976 31.7251 55.7656C31.3464 55.5312 31.054 55.2045 30.848 54.7855C30.6444 54.3641 30.5426 53.8741 30.5426 53.3153C30.5426 52.7566 30.6444 52.2642 30.848 51.8381C31.054 51.4096 31.3404 51.0758 31.7074 50.8366C32.0767 50.5952 32.5076 50.4744 33 50.4744C33.2841 50.4744 33.5646 50.5218 33.8416 50.6165C34.1186 50.7112 34.3707 50.8651 34.598 51.0781C34.8253 51.2888 35.0064 51.5682 35.1413 51.9162C35.2763 52.2642 35.3438 52.6927 35.3438 53.2017V53.5568H31.1392V52.8324H34.4915C34.4915 52.5246 34.4299 52.25 34.3068 52.0085C34.1861 51.767 34.0133 51.5765 33.7884 51.4368C33.5658 51.2971 33.303 51.2273 33 51.2273C32.6662 51.2273 32.3774 51.3101 32.1335 51.4759C31.892 51.6392 31.7062 51.8523 31.576 52.1151C31.4458 52.3778 31.3807 52.6596 31.3807 52.9602V53.4432C31.3807 53.8551 31.4517 54.2043 31.5938 54.4908C31.7382 54.7749 31.9382 54.9915 32.1939 55.1406C32.4496 55.2874 32.7467 55.3608 33.0852 55.3608C33.3054 55.3608 33.5043 55.33 33.6818 55.2685C33.8617 55.2045 34.0168 55.1098 34.147 54.9844C34.2772 54.8565 34.3778 54.6979 34.4489 54.5085L35.2585 54.7358C35.1733 55.0104 35.0301 55.2519 34.8288 55.4602C34.6276 55.6662 34.379 55.8272 34.0831 55.9432C33.7872 56.0568 33.4545 56.1136 33.0852 56.1136ZM37.4567 52.7188V56H36.6186V50.5455H37.4283V51.3977H37.4993C37.6271 51.1207 37.8213 50.8982 38.0817 50.7301C38.3421 50.5597 38.6783 50.4744 39.0902 50.4744C39.4595 50.4744 39.7827 50.5502 40.0597 50.7017C40.3366 50.8509 40.5521 51.0781 40.706 51.3835C40.8598 51.6866 40.9368 52.0701 40.9368 52.5341V56H40.0987V52.5909C40.0987 52.1624 39.9875 51.8286 39.7649 51.5895C39.5424 51.348 39.237 51.2273 38.8487 51.2273C38.5812 51.2273 38.3421 51.2853 38.1314 51.4013C37.9231 51.5173 37.7585 51.6866 37.6378 51.9091C37.517 52.1316 37.4567 52.4015 37.4567 52.7188ZM44.8404 50.5455V51.2557H42.0137V50.5455H44.8404ZM42.8375 49.2386H43.6756V54.4375C43.6756 54.6742 43.7099 54.8518 43.7786 54.9702C43.8496 55.0862 43.9396 55.1643 44.0485 55.2045C44.1597 55.2424 44.2769 55.2614 44.4 55.2614C44.4924 55.2614 44.5681 55.2566 44.6273 55.2472C44.6865 55.2353 44.7338 55.2259 44.7694 55.2188L44.9398 55.9716C44.883 55.9929 44.8037 56.0142 44.7019 56.0355C44.6001 56.0592 44.4711 56.071 44.3148 56.071C44.0781 56.071 43.8461 56.0201 43.6188 55.9183C43.3939 55.8165 43.2069 55.6615 43.0577 55.4531C42.9109 55.2448 42.8375 54.982 42.8375 54.6648V49.2386ZM49.867 51.767L49.1142 51.9801C49.0668 51.8546 48.997 51.7327 48.9047 51.6143C48.8147 51.4936 48.6916 51.3942 48.5353 51.3161C48.3791 51.2379 48.179 51.1989 47.9352 51.1989C47.6014 51.1989 47.3232 51.2758 47.1007 51.4297C46.8805 51.5812 46.7704 51.7741 46.7704 52.0085C46.7704 52.2169 46.8462 52.3814 46.9977 52.5021C47.1492 52.6229 47.3859 52.7235 47.7079 52.804L48.5176 53.0028C49.0053 53.1212 49.3687 53.3023 49.6078 53.5462C49.8469 53.7876 49.9664 54.099 49.9664 54.4801C49.9664 54.7926 49.8765 55.072 49.6966 55.3182C49.519 55.5644 49.2704 55.7585 48.9508 55.9006C48.6312 56.0426 48.2595 56.1136 47.8358 56.1136C47.2794 56.1136 46.819 55.9929 46.4544 55.7514C46.0898 55.5099 45.859 55.1572 45.7619 54.6932L46.5574 54.4943C46.6331 54.7879 46.7763 55.008 46.987 55.1548C47.2001 55.3016 47.4783 55.375 47.8216 55.375C48.2122 55.375 48.5223 55.2921 48.752 55.1264C48.984 54.9583 49.1 54.7571 49.1 54.5227C49.1 54.3333 49.0337 54.1747 48.9011 54.0469C48.7685 53.9167 48.5649 53.8196 48.2903 53.7557L47.3812 53.5426C46.8817 53.4242 46.5147 53.2408 46.2804 52.9922C46.0484 52.7412 45.9324 52.4276 45.9324 52.0511C45.9324 51.7434 46.0188 51.4711 46.1916 51.2344C46.3668 50.9976 46.6047 50.8118 46.9054 50.6768C47.2084 50.5419 47.5517 50.4744 47.9352 50.4744C48.475 50.4744 48.8987 50.5928 49.2065 50.8295C49.5166 51.0663 49.7368 51.3788 49.867 51.767Z" fill="#08190E"/>
<path d="M8.48295 73.5085V72.7273H13.9375V73.5085H11.6506V80H10.7699V73.5085H8.48295ZM16.679 80.1136C16.1534 80.1136 15.7 79.9976 15.3189 79.7656C14.9401 79.5312 14.6477 79.2045 14.4418 78.7855C14.2382 78.3641 14.1364 77.8741 14.1364 77.3153C14.1364 76.7566 14.2382 76.2642 14.4418 75.8381C14.6477 75.4096 14.9342 75.0758 15.3011 74.8366C15.6705 74.5952 16.1013 74.4744 16.5938 74.4744C16.8778 74.4744 17.1584 74.5218 17.4354 74.6165C17.7124 74.7112 17.9645 74.8651 18.1918 75.0781C18.419 75.2888 18.6001 75.5682 18.7351 75.9162C18.87 76.2642 18.9375 76.6927 18.9375 77.2017V77.5568H14.733V76.8324H18.0852C18.0852 76.5246 18.0237 76.25 17.9006 76.0085C17.7798 75.767 17.607 75.5765 17.3821 75.4368C17.1596 75.2971 16.8968 75.2273 16.5938 75.2273C16.2599 75.2273 15.9711 75.3101 15.7273 75.4759C15.4858 75.6392 15.3 75.8523 15.1697 76.1151C15.0395 76.3778 14.9744 76.6596 14.9744 76.9602V77.4432C14.9744 77.8551 15.0455 78.2043 15.1875 78.4908C15.3319 78.7749 15.532 78.9915 15.7876 79.1406C16.0433 79.2874 16.3404 79.3608 16.679 79.3608C16.8991 79.3608 17.098 79.33 17.2756 79.2685C17.4555 79.2045 17.6106 79.1098 17.7408 78.9844C17.871 78.8565 17.9716 78.6979 18.0426 78.5085L18.8523 78.7358C18.767 79.0104 18.6238 79.2519 18.4226 79.4602C18.2214 79.6662 17.9728 79.8272 17.6768 79.9432C17.3809 80.0568 17.0483 80.1136 16.679 80.1136ZM21.8175 80.1278C21.4718 80.1278 21.1581 80.0627 20.8764 79.9325C20.5947 79.8 20.371 79.6094 20.2053 79.3608C20.0395 79.1098 19.9567 78.8068 19.9567 78.4517C19.9567 78.1392 20.0182 77.8859 20.1413 77.6918C20.2644 77.4953 20.429 77.3414 20.6349 77.2301C20.8409 77.1188 21.0682 77.036 21.3168 76.9815C21.5677 76.9247 21.8198 76.8797 22.0732 76.8466C22.4046 76.804 22.6733 76.772 22.8793 76.7507C23.0876 76.727 23.2391 76.688 23.3338 76.6335C23.4309 76.5791 23.4794 76.4844 23.4794 76.3494V76.321C23.4794 75.9706 23.3835 75.6984 23.1918 75.5043C23.0024 75.3101 22.7147 75.2131 22.3288 75.2131C21.9287 75.2131 21.6151 75.3007 21.3878 75.4759C21.1605 75.651 21.0007 75.8381 20.9084 76.0369L20.1129 75.7528C20.255 75.4214 20.4444 75.1634 20.6811 74.9787C20.9202 74.7917 21.1806 74.6615 21.4624 74.5881C21.7464 74.5123 22.0258 74.4744 22.3004 74.4744C22.4756 74.4744 22.6768 74.4957 22.9041 74.5384C23.1338 74.5786 23.3551 74.6626 23.5682 74.7905C23.7836 74.9183 23.9624 75.1113 24.1044 75.3693C24.2464 75.6274 24.3175 75.973 24.3175 76.4062V80H23.4794V79.2614H23.4368C23.38 79.3797 23.2853 79.5064 23.1527 79.6413C23.0201 79.7763 22.8438 79.8911 22.6236 79.9858C22.4034 80.0805 22.1347 80.1278 21.8175 80.1278ZM21.9453 79.375C22.2768 79.375 22.5561 79.3099 22.7834 79.1797C23.013 79.0495 23.1858 78.8814 23.3018 78.6754C23.4202 78.4695 23.4794 78.2528 23.4794 78.0256V77.2585C23.4439 77.3011 23.3658 77.3402 23.245 77.3757C23.1267 77.4089 22.9893 77.4384 22.8331 77.4645C22.6792 77.4882 22.5289 77.5095 22.3821 77.5284C22.2377 77.545 22.1205 77.5592 22.0305 77.571C21.8127 77.5994 21.6091 77.6456 21.4197 77.7095C21.2327 77.7711 21.0812 77.8646 20.9652 77.9901C20.8516 78.1132 20.7947 78.2812 20.7947 78.4943C20.7947 78.7855 20.9025 79.0057 21.1179 79.1548C21.3357 79.3016 21.6115 79.375 21.9453 79.375ZM28.063 80.1136C27.5517 80.1136 27.1113 79.9929 26.742 79.7514C26.3727 79.5099 26.0886 79.1773 25.8897 78.7536C25.6909 78.3298 25.5914 77.8456 25.5914 77.3011C25.5914 76.7472 25.6932 76.2583 25.8968 75.8345C26.1028 75.4084 26.3893 75.0758 26.7562 74.8366C27.1255 74.5952 27.5564 74.4744 28.0488 74.4744C28.4324 74.4744 28.778 74.5455 29.0858 74.6875C29.3935 74.8295 29.6457 75.0284 29.8422 75.2841C30.0386 75.5398 30.1606 75.8381 30.2079 76.179H29.3699C29.3059 75.9304 29.1639 75.7102 28.9437 75.5185C28.7259 75.3243 28.4324 75.2273 28.063 75.2273C27.7363 75.2273 27.4499 75.3125 27.2037 75.483C26.9598 75.651 26.7692 75.889 26.6319 76.1967C26.497 76.5021 26.4295 76.8608 26.4295 77.2727C26.4295 77.6941 26.4958 78.0611 26.6284 78.3736C26.7633 78.6861 26.9527 78.9287 27.1966 79.1016C27.4428 79.2744 27.7316 79.3608 28.063 79.3608C28.2808 79.3608 28.4785 79.3229 28.6561 79.2472C28.8336 79.1714 28.984 79.0625 29.1071 78.9205C29.2302 78.7784 29.3178 78.608 29.3699 78.4091H30.2079C30.1606 78.7311 30.0434 79.0211 29.8564 79.2791C29.6717 79.5348 29.4267 79.7384 29.1213 79.8899C28.8182 80.0391 28.4655 80.1136 28.063 80.1136ZM32.2711 76.7188V80H31.4331V72.7273H32.2711V75.3977H32.3422C32.47 75.116 32.6618 74.8923 32.9174 74.7266C33.1755 74.5585 33.5188 74.4744 33.9473 74.4744C34.319 74.4744 34.6445 74.549 34.9238 74.6982C35.2032 74.8449 35.4198 75.071 35.5737 75.3764C35.7299 75.6795 35.8081 76.0653 35.8081 76.5341V80H34.97V76.5909C34.97 76.1577 34.8575 75.8227 34.6326 75.5859C34.4101 75.3468 34.1011 75.2273 33.7058 75.2273C33.4312 75.2273 33.185 75.2853 32.9672 75.4013C32.7517 75.5173 32.5813 75.6866 32.4558 75.9091C32.3327 76.1316 32.2711 76.4015 32.2711 76.7188ZM39.6282 80.1136C39.1026 80.1136 38.6493 79.9976 38.2681 79.7656C37.8893 79.5312 37.5969 79.2045 37.391 78.7855C37.1874 78.3641 37.0856 77.8741 37.0856 77.3153C37.0856 76.7566 37.1874 76.2642 37.391 75.8381C37.5969 75.4096 37.8834 75.0758 38.2504 74.8366C38.6197 74.5952 39.0505 74.4744 39.543 74.4744C39.8271 74.4744 40.1076 74.5218 40.3846 74.6165C40.6616 74.7112 40.9137 74.8651 41.141 75.0781C41.3683 75.2888 41.5494 75.5682 41.6843 75.9162C41.8192 76.2642 41.8867 76.6927 41.8867 77.2017V77.5568H37.6822V76.8324H41.0344C41.0344 76.5246 40.9729 76.25 40.8498 76.0085C40.729 75.767 40.5562 75.5765 40.3313 75.4368C40.1088 75.2971 39.846 75.2273 39.543 75.2273C39.2092 75.2273 38.9203 75.3101 38.6765 75.4759C38.435 75.6392 38.2492 75.8523 38.119 76.1151C37.9888 76.3778 37.9237 76.6596 37.9237 76.9602V77.4432C37.9237 77.8551 37.9947 78.2043 38.1367 78.4908C38.2811 78.7749 38.4812 78.9915 38.7369 79.1406C38.9925 79.2874 39.2897 79.3608 39.6282 79.3608C39.8484 79.3608 40.0472 79.33 40.2248 79.2685C40.4047 79.2045 40.5598 79.1098 40.69 78.9844C40.8202 78.8565 40.9208 78.6979 40.9918 78.5085L41.8015 78.7358C41.7163 79.0104 41.573 79.2519 41.3718 79.4602C41.1706 79.6662 40.922 79.8272 40.6261 79.9432C40.3301 80.0568 39.9975 80.1136 39.6282 80.1136ZM43.1616 80V74.5455H43.9712V75.3693H44.0281C44.1275 75.0994 44.3074 74.8804 44.5678 74.7124C44.8282 74.5443 45.1218 74.4602 45.4485 74.4602C45.5101 74.4602 45.587 74.4614 45.6793 74.4638C45.7717 74.4661 45.8415 74.4697 45.8888 74.4744V75.3267C45.8604 75.3196 45.7953 75.3089 45.6935 75.2947C45.5941 75.2782 45.4888 75.2699 45.3775 75.2699C45.1123 75.2699 44.8756 75.3255 44.6673 75.4368C44.4613 75.5457 44.2979 75.6972 44.1772 75.8913C44.0588 76.0831 43.9996 76.3021 43.9996 76.5483V80H43.1616ZM50.7459 75.767L49.9931 75.9801C49.9457 75.8546 49.8759 75.7327 49.7836 75.6143C49.6936 75.4936 49.5705 75.3942 49.4142 75.3161C49.258 75.2379 49.0579 75.1989 48.8141 75.1989C48.4803 75.1989 48.2021 75.2758 47.9796 75.4297C47.7594 75.5812 47.6493 75.7741 47.6493 76.0085C47.6493 76.2169 47.7251 76.3814 47.8766 76.5021C48.0281 76.6229 48.2649 76.7235 48.5868 76.804L49.3965 77.0028C49.8842 77.1212 50.2476 77.3023 50.4867 77.5462C50.7258 77.7876 50.8453 78.099 50.8453 78.4801C50.8453 78.7926 50.7554 79.072 50.5755 79.3182C50.3979 79.5644 50.1493 79.7585 49.8297 79.9006C49.5101 80.0426 49.1384 80.1136 48.7147 80.1136C48.1583 80.1136 47.6979 79.9929 47.3333 79.7514C46.9687 79.5099 46.7379 79.1572 46.6408 78.6932L47.4363 78.4943C47.512 78.7879 47.6552 79.008 47.8659 79.1548C48.079 79.3016 48.3572 79.375 48.7005 79.375C49.0911 79.375 49.4012 79.2921 49.6309 79.1264C49.8629 78.9583 49.9789 78.7571 49.9789 78.5227C49.9789 78.3333 49.9126 78.1747 49.78 78.0469C49.6474 77.9167 49.4438 77.8196 49.1692 77.7557L48.2601 77.5426C47.7606 77.4242 47.3936 77.2408 47.1593 76.9922C46.9273 76.7412 46.8113 76.4276 46.8113 76.0511C46.8113 75.7434 46.8977 75.4711 47.0705 75.2344C47.2457 74.9976 47.4836 74.8118 47.7843 74.6768C48.0873 74.5419 48.4306 74.4744 48.8141 74.4744C49.3539 74.4744 49.7776 74.5928 50.0854 74.8295C50.3955 75.0663 50.6157 75.3788 50.7459 75.767Z" fill="#08190E"/>
<path d="M12.858 98.5455C12.8153 98.1856 12.6425 97.9062 12.3395 97.7074C12.0365 97.5085 11.6648 97.4091 11.2244 97.4091C10.9025 97.4091 10.6207 97.4612 10.3793 97.5653C10.1402 97.6695 9.95313 97.8127 9.81818 97.995C9.68561 98.1773 9.61932 98.3845 9.61932 98.6165C9.61932 98.8106 9.66548 98.9775 9.75781 99.1172C9.85251 99.2545 9.97325 99.3693 10.12 99.4616C10.2668 99.5516 10.4207 99.6262 10.5817 99.6854C10.7427 99.7422 10.8906 99.7884 11.0256 99.8239L11.7642 100.023C11.9536 100.072 12.1643 100.141 12.3963 100.229C12.6307 100.316 12.8544 100.436 13.0675 100.587C13.2829 100.737 13.4605 100.928 13.6001 101.163C13.7398 101.397 13.8097 101.685 13.8097 102.026C13.8097 102.419 13.7067 102.774 13.5007 103.091C13.2971 103.408 12.9988 103.66 12.6058 103.847C12.2152 104.034 11.7405 104.128 11.1818 104.128C10.661 104.128 10.21 104.044 9.82884 103.876C9.45005 103.708 9.15175 103.473 8.93395 103.173C8.71851 102.872 8.59659 102.523 8.56818 102.125H9.47727C9.50095 102.4 9.59328 102.627 9.75426 102.807C9.91761 102.984 10.1236 103.117 10.3722 103.205C10.6231 103.29 10.893 103.332 11.1818 103.332C11.518 103.332 11.8198 103.278 12.0874 103.169C12.3549 103.058 12.5668 102.904 12.723 102.707C12.8793 102.509 12.9574 102.277 12.9574 102.011C12.9574 101.77 12.8899 101.573 12.755 101.422C12.62 101.27 12.4425 101.147 12.2223 101.053C12.0021 100.958 11.7642 100.875 11.5085 100.804L10.6136 100.548C10.0455 100.385 9.59564 100.152 9.2642 99.8487C8.93277 99.5457 8.76705 99.1491 8.76705 98.6591C8.76705 98.2519 8.87713 97.8968 9.0973 97.5938C9.31984 97.2884 9.61813 97.0516 9.99219 96.8835C10.3686 96.7131 10.7888 96.6278 11.2528 96.6278C11.7216 96.6278 12.1383 96.7119 12.5028 96.88C12.8674 97.0457 13.1563 97.273 13.3693 97.5618C13.5848 97.8506 13.6984 98.1785 13.7102 98.5455H12.858ZM17.3599 104.114C16.8485 104.114 16.4082 103.993 16.0389 103.751C15.6696 103.51 15.3855 103.177 15.1866 102.754C14.9877 102.33 14.8883 101.846 14.8883 101.301C14.8883 100.747 14.9901 100.258 15.1937 99.8345C15.3997 99.4084 15.6861 99.0758 16.0531 98.8366C16.4224 98.5952 16.8533 98.4744 17.3457 98.4744C17.7292 98.4744 18.0749 98.5455 18.3826 98.6875C18.6904 98.8295 18.9425 99.0284 19.139 99.2841C19.3355 99.5398 19.4574 99.8381 19.5048 100.179H18.6667C18.6028 99.9304 18.4608 99.7102 18.2406 99.5185C18.0228 99.3243 17.7292 99.2273 17.3599 99.2273C17.0332 99.2273 16.7467 99.3125 16.5005 99.483C16.2567 99.651 16.0661 99.889 15.9288 100.197C15.7939 100.502 15.7264 100.861 15.7264 101.273C15.7264 101.694 15.7927 102.061 15.9252 102.374C16.0602 102.686 16.2496 102.929 16.4934 103.102C16.7396 103.274 17.0285 103.361 17.3599 103.361C17.5777 103.361 17.7754 103.323 17.9529 103.247C18.1305 103.171 18.2808 103.062 18.4039 102.92C18.527 102.778 18.6146 102.608 18.6667 102.409H19.5048C19.4574 102.731 19.3403 103.021 19.1532 103.279C18.9686 103.535 18.7235 103.738 18.4181 103.89C18.1151 104.039 17.7624 104.114 17.3599 104.114ZM21.568 100.719V104H20.7299V96.7273H21.568V99.3977H21.639C21.7669 99.116 21.9586 98.8923 22.2143 98.7266C22.4724 98.5585 22.8156 98.4744 23.2441 98.4744C23.6158 98.4744 23.9413 98.549 24.2207 98.6982C24.5001 98.8449 24.7167 99.071 24.8706 99.3764C25.0268 99.6795 25.1049 100.065 25.1049 100.534V104H24.2669V100.591C24.2669 100.158 24.1544 99.8227 23.9295 99.5859C23.707 99.3468 23.398 99.2273 23.0027 99.2273C22.728 99.2273 22.4818 99.2853 22.264 99.4013C22.0486 99.5173 21.8781 99.6866 21.7527 99.9091C21.6296 100.132 21.568 100.402 21.568 100.719ZM28.854 104.114C28.3616 104.114 27.9296 103.996 27.5579 103.762C27.1886 103.528 26.8997 103.2 26.6914 102.778C26.4854 102.357 26.3825 101.865 26.3825 101.301C26.3825 100.733 26.4854 100.237 26.6914 99.8132C26.8997 99.3894 27.1886 99.0604 27.5579 98.826C27.9296 98.5916 28.3616 98.4744 28.854 98.4744C29.3465 98.4744 29.7773 98.5916 30.1467 98.826C30.5183 99.0604 30.8072 99.3894 31.0131 99.8132C31.2215 100.237 31.3256 100.733 31.3256 101.301C31.3256 101.865 31.2215 102.357 31.0131 102.778C30.8072 103.2 30.5183 103.528 30.1467 103.762C29.7773 103.996 29.3465 104.114 28.854 104.114ZM28.854 103.361C29.2281 103.361 29.5359 103.265 29.7773 103.073C30.0188 102.881 30.1976 102.629 30.3136 102.317C30.4296 102.004 30.4876 101.666 30.4876 101.301C30.4876 100.937 30.4296 100.597 30.3136 100.282C30.1976 99.9671 30.0188 99.7126 29.7773 99.5185C29.5359 99.3243 29.2281 99.2273 28.854 99.2273C28.48 99.2273 28.1722 99.3243 27.9308 99.5185C27.6893 99.7126 27.5105 99.9671 27.3945 100.282C27.2785 100.597 27.2205 100.937 27.2205 101.301C27.2205 101.666 27.2785 102.004 27.3945 102.317C27.5105 102.629 27.6893 102.881 27.9308 103.073C28.1722 103.265 28.48 103.361 28.854 103.361ZM34.8208 104.114C34.3284 104.114 33.8964 103.996 33.5247 103.762C33.1554 103.528 32.8665 103.2 32.6582 102.778C32.4522 102.357 32.3493 101.865 32.3493 101.301C32.3493 100.733 32.4522 100.237 32.6582 99.8132C32.8665 99.3894 33.1554 99.0604 33.5247 98.826C33.8964 98.5916 34.3284 98.4744 34.8208 98.4744C35.3133 98.4744 35.7441 98.5916 36.1135 98.826C36.4851 99.0604 36.774 99.3894 36.9799 99.8132C37.1883 100.237 37.2924 100.733 37.2924 101.301C37.2924 101.865 37.1883 102.357 36.9799 102.778C36.774 103.2 36.4851 103.528 36.1135 103.762C35.7441 103.996 35.3133 104.114 34.8208 104.114ZM34.8208 103.361C35.1949 103.361 35.5027 103.265 35.7441 103.073C35.9856 102.881 36.1644 102.629 36.2804 102.317C36.3964 102.004 36.4544 101.666 36.4544 101.301C36.4544 100.937 36.3964 100.597 36.2804 100.282C36.1644 99.9671 35.9856 99.7126 35.7441 99.5185C35.5027 99.3243 35.1949 99.2273 34.8208 99.2273C34.4468 99.2273 34.139 99.3243 33.8975 99.5185C33.6561 99.7126 33.4773 99.9671 33.3613 100.282C33.2453 100.597 33.1873 100.937 33.1873 101.301C33.1873 101.666 33.2453 102.004 33.3613 102.317C33.4773 102.629 33.6561 102.881 33.8975 103.073C34.139 103.265 34.4468 103.361 34.8208 103.361ZM39.4098 96.7273V104H38.5717V96.7273H39.4098ZM44.1692 104H43.2459L45.9164 96.7273H46.8255L49.4959 104H48.5726L46.3993 97.8778H46.3425L44.1692 104ZM44.5101 101.159H48.2317V101.94H44.5101V101.159ZM52.5748 104.114C52.1202 104.114 51.7189 103.999 51.3709 103.769C51.0229 103.537 50.7507 103.21 50.5542 102.789C50.3577 102.365 50.2594 101.865 50.2594 101.287C50.2594 100.714 50.3577 100.217 50.5542 99.7955C50.7507 99.3741 51.0241 99.0485 51.3745 98.8189C51.7248 98.5893 52.1297 98.4744 52.589 98.4744C52.9441 98.4744 53.2246 98.5336 53.4306 98.652C53.6389 98.768 53.7975 98.9006 53.9064 99.0497C54.0177 99.1965 54.1041 99.3172 54.1657 99.4119H54.2367V96.7273H55.0748V104H54.2651V103.162H54.1657C54.1041 103.261 54.0165 103.387 53.9029 103.538C53.7892 103.687 53.6271 103.821 53.4164 103.94C53.2057 104.056 52.9251 104.114 52.5748 104.114ZM52.6884 103.361C53.0246 103.361 53.3087 103.273 53.5407 103.098C53.7727 102.92 53.949 102.675 54.0698 102.363C54.1905 102.048 54.2509 101.685 54.2509 101.273C54.2509 100.866 54.1917 100.509 54.0733 100.204C53.955 99.8961 53.7798 99.657 53.5478 99.4865C53.3158 99.3137 53.0293 99.2273 52.6884 99.2273C52.3333 99.2273 52.0373 99.3184 51.8006 99.5007C51.5662 99.6806 51.3899 99.9257 51.2715 100.236C51.1555 100.544 51.0975 100.889 51.0975 101.273C51.0975 101.661 51.1567 102.014 51.275 102.331C51.3958 102.646 51.5733 102.897 51.8077 103.084C52.0444 103.268 52.338 103.361 52.6884 103.361ZM56.726 104V98.5455H57.5357V99.3977H57.6067C57.7203 99.1065 57.9038 98.8804 58.1571 98.7195C58.4105 98.5561 58.7147 98.4744 59.0698 98.4744C59.4296 98.4744 59.7291 98.5561 59.9682 98.7195C60.2097 98.8804 60.3979 99.1065 60.5328 99.3977H60.5897C60.7293 99.116 60.9389 98.8923 61.2182 98.7266C61.4976 98.5585 61.8326 98.4744 62.2232 98.4744C62.7109 98.4744 63.1098 98.6271 63.4199 98.9325C63.7301 99.2356 63.8851 99.7079 63.8851 100.349V104H63.0471V100.349C63.0471 99.947 62.937 99.6593 62.7168 99.4865C62.4966 99.3137 62.2374 99.2273 61.9391 99.2273C61.5556 99.2273 61.2585 99.3433 61.0478 99.5753C60.8371 99.8049 60.7317 100.096 60.7317 100.449V104H59.8794V100.264C59.8794 99.9541 59.7788 99.7043 59.5776 99.5149C59.3764 99.3232 59.1171 99.2273 58.7999 99.2273C58.5821 99.2273 58.3785 99.2853 58.1891 99.4013C58.0021 99.5173 57.8506 99.6783 57.7346 99.8842C57.6209 100.088 57.5641 100.323 57.5641 100.591V104H56.726ZM65.4174 104V98.5455H66.2555V104H65.4174ZM65.8436 97.6364C65.6802 97.6364 65.5394 97.5807 65.421 97.4695C65.305 97.3582 65.247 97.2244 65.247 97.0682C65.247 96.9119 65.305 96.7782 65.421 96.6669C65.5394 96.5556 65.6802 96.5 65.8436 96.5C66.0069 96.5 66.1466 96.5556 66.2626 96.6669C66.381 96.7782 66.4402 96.9119 66.4402 97.0682C66.4402 97.2244 66.381 97.3582 66.2626 97.4695C66.1466 97.5807 66.0069 97.6364 65.8436 97.6364ZM68.6286 100.719V104H67.7905V98.5455H68.6001V99.3977H68.6712C68.799 99.1207 68.9931 98.8982 69.2536 98.7301C69.514 98.5597 69.8501 98.4744 70.2621 98.4744C70.6314 98.4744 70.9545 98.5502 71.2315 98.7017C71.5085 98.8509 71.724 99.0781 71.8778 99.3835C72.0317 99.6866 72.1087 100.07 72.1087 100.534V104H71.2706V100.591C71.2706 100.162 71.1593 99.8286 70.9368 99.5895C70.7143 99.348 70.4089 99.2273 70.0206 99.2273C69.7531 99.2273 69.514 99.2853 69.3033 99.4013C69.0949 99.5173 68.9304 99.6866 68.8097 99.9091C68.6889 100.132 68.6286 100.402 68.6286 100.719ZM73.6401 104V98.5455H74.4782V104H73.6401ZM74.0662 97.6364C73.9029 97.6364 73.762 97.5807 73.6436 97.4695C73.5276 97.3582 73.4696 97.2244 73.4696 97.0682C73.4696 96.9119 73.5276 96.7782 73.6436 96.6669C73.762 96.5556 73.9029 96.5 74.0662 96.5C74.2296 96.5 74.3693 96.5556 74.4853 96.6669C74.6036 96.7782 74.6628 96.9119 74.6628 97.0682C74.6628 97.2244 74.6036 97.3582 74.4853 97.4695C74.3693 97.5807 74.2296 97.6364 74.0662 97.6364ZM79.8768 99.767L79.1239 99.9801C79.0766 99.8546 79.0067 99.7327 78.9144 99.6143C78.8245 99.4936 78.7013 99.3942 78.5451 99.3161C78.3888 99.2379 78.1888 99.1989 77.945 99.1989C77.6112 99.1989 77.333 99.2758 77.1104 99.4297C76.8903 99.5812 76.7802 99.7741 76.7802 100.009C76.7802 100.217 76.8559 100.381 77.0075 100.502C77.159 100.623 77.3957 100.723 77.7177 100.804L78.5273 101.003C79.015 101.121 79.3784 101.302 79.6175 101.546C79.8567 101.788 79.9762 102.099 79.9762 102.48C79.9762 102.793 79.8862 103.072 79.7063 103.318C79.5288 103.564 79.2802 103.759 78.9606 103.901C78.641 104.043 78.2693 104.114 77.8455 104.114C77.2892 104.114 76.8287 103.993 76.4641 103.751C76.0996 103.51 75.8687 103.157 75.7717 102.693L76.5671 102.494C76.6429 102.788 76.7861 103.008 76.9968 103.155C77.2099 103.302 77.488 103.375 77.8313 103.375C78.2219 103.375 78.5321 103.292 78.7617 103.126C78.9937 102.958 79.1097 102.757 79.1097 102.523C79.1097 102.333 79.0434 102.175 78.9109 102.047C78.7783 101.917 78.5747 101.82 78.3001 101.756L77.391 101.543C76.8915 101.424 76.5245 101.241 76.2901 100.992C76.0581 100.741 75.9421 100.428 75.9421 100.051C75.9421 99.7434 76.0285 99.4711 76.2013 99.2344C76.3765 98.9976 76.6145 98.8118 76.9151 98.6768C77.2182 98.5419 77.5614 98.4744 77.945 98.4744C78.4847 98.4744 78.9085 98.5928 79.2163 98.8295C79.5264 99.0663 79.7466 99.3788 79.8768 99.767ZM83.6099 98.5455V99.2557H80.7832V98.5455H83.6099ZM81.6071 97.2386H82.4451V102.438C82.4451 102.674 82.4795 102.852 82.5481 102.97C82.6191 103.086 82.7091 103.164 82.818 103.205C82.9293 103.242 83.0465 103.261 83.1696 103.261C83.2619 103.261 83.3377 103.257 83.3968 103.247C83.456 103.235 83.5034 103.226 83.5389 103.219L83.7093 103.972C83.6525 103.993 83.5732 104.014 83.4714 104.036C83.3696 104.059 83.2406 104.071 83.0843 104.071C82.8476 104.071 82.6156 104.02 82.3883 103.918C82.1634 103.817 81.9764 103.661 81.8272 103.453C81.6805 103.245 81.6071 102.982 81.6071 102.665V97.2386ZM84.8706 104V98.5455H85.6802V99.3693H85.737C85.8365 99.0994 86.0164 98.8804 86.2768 98.7124C86.5372 98.5443 86.8308 98.4602 87.1575 98.4602C87.219 98.4602 87.296 98.4614 87.3883 98.4638C87.4806 98.4661 87.5505 98.4697 87.5978 98.4744V99.3267C87.5694 99.3196 87.5043 99.3089 87.4025 99.2947C87.3031 99.2782 87.1977 99.2699 87.0865 99.2699C86.8213 99.2699 86.5846 99.3255 86.3762 99.4368C86.1703 99.5457 86.0069 99.6972 85.8862 99.8913C85.7678 100.083 85.7086 100.302 85.7086 100.548V104H84.8706ZM90.1964 104.128C89.8507 104.128 89.5371 104.063 89.2553 103.933C88.9736 103.8 88.7499 103.609 88.5842 103.361C88.4184 103.11 88.3356 102.807 88.3356 102.452C88.3356 102.139 88.3971 101.886 88.5202 101.692C88.6433 101.495 88.8079 101.341 89.0138 101.23C89.2198 101.119 89.4471 101.036 89.6957 100.982C89.9466 100.925 90.1987 100.88 90.4521 100.847C90.7835 100.804 91.0522 100.772 91.2582 100.751C91.4665 100.727 91.618 100.688 91.7127 100.634C91.8098 100.579 91.8583 100.484 91.8583 100.349V100.321C91.8583 99.9706 91.7624 99.6984 91.5707 99.5043C91.3813 99.3101 91.0936 99.2131 90.7077 99.2131C90.3076 99.2131 89.994 99.3007 89.7667 99.4759C89.5394 99.651 89.3796 99.8381 89.2873 100.037L88.4918 99.7528C88.6339 99.4214 88.8233 99.1634 89.06 98.9787C89.2991 98.7917 89.5595 98.6615 89.8413 98.5881C90.1254 98.5123 90.4047 98.4744 90.6793 98.4744C90.8545 98.4744 91.0558 98.4957 91.283 98.5384C91.5127 98.5786 91.734 98.6626 91.9471 98.7905C92.1625 98.9183 92.3413 99.1113 92.4833 99.3693C92.6254 99.6274 92.6964 99.973 92.6964 100.406V104H91.8583V103.261H91.8157C91.7589 103.38 91.6642 103.506 91.5316 103.641C91.399 103.776 91.2227 103.891 91.0025 103.986C90.7823 104.08 90.5136 104.128 90.1964 104.128ZM90.3242 103.375C90.6557 103.375 90.935 103.31 91.1623 103.18C91.3919 103.049 91.5647 102.881 91.6808 102.675C91.7991 102.469 91.8583 102.253 91.8583 102.026V101.259C91.8228 101.301 91.7447 101.34 91.6239 101.376C91.5056 101.409 91.3683 101.438 91.212 101.464C91.0581 101.488 90.9078 101.509 90.761 101.528C90.6166 101.545 90.4994 101.559 90.4094 101.571C90.1916 101.599 89.988 101.646 89.7987 101.71C89.6116 101.771 89.4601 101.865 89.3441 101.99C89.2305 102.113 89.1737 102.281 89.1737 102.494C89.1737 102.786 89.2814 103.006 89.4968 103.155C89.7146 103.302 89.9904 103.375 90.3242 103.375ZM96.5982 98.5455V99.2557H93.7715V98.5455H96.5982ZM94.5953 97.2386H95.4334V102.438C95.4334 102.674 95.4677 102.852 95.5364 102.97C95.6074 103.086 95.6974 103.164 95.8063 103.205C95.9176 103.242 96.0347 103.261 96.1578 103.261C96.2502 103.261 96.3259 103.257 96.3851 103.247C96.4443 103.235 96.4917 103.226 96.5272 103.219L96.6976 103.972C96.6408 103.993 96.5615 104.014 96.4597 104.036C96.3579 104.059 96.2289 104.071 96.0726 104.071C95.8359 104.071 95.6039 104.02 95.3766 103.918C95.1517 103.817 94.9647 103.661 94.8155 103.453C94.6687 103.245 94.5953 102.982 94.5953 102.665V97.2386ZM100.016 104.114C99.5237 104.114 99.0917 103.996 98.72 103.762C98.3507 103.528 98.0618 103.2 97.8535 102.778C97.6475 102.357 97.5446 101.865 97.5446 101.301C97.5446 100.733 97.6475 100.237 97.8535 99.8132C98.0618 99.3894 98.3507 99.0604 98.72 98.826C99.0917 98.5916 99.5237 98.4744 100.016 98.4744C100.509 98.4744 100.939 98.5916 101.309 98.826C101.68 99.0604 101.969 99.3894 102.175 99.8132C102.384 100.237 102.488 100.733 102.488 101.301C102.488 101.865 102.384 102.357 102.175 102.778C101.969 103.2 101.68 103.528 101.309 103.762C100.939 103.996 100.509 104.114 100.016 104.114ZM100.016 103.361C100.39 103.361 100.698 103.265 100.939 103.073C101.181 102.881 101.36 102.629 101.476 102.317C101.592 102.004 101.65 101.666 101.65 101.301C101.65 100.937 101.592 100.597 101.476 100.282C101.36 99.9671 101.181 99.7126 100.939 99.5185C100.698 99.3243 100.39 99.2273 100.016 99.2273C99.6421 99.2273 99.3343 99.3243 99.0929 99.5185C98.8514 99.7126 98.6726 99.9671 98.5566 100.282C98.4406 100.597 98.3826 100.937 98.3826 101.301C98.3826 101.666 98.4406 102.004 98.5566 102.317C98.6726 102.629 98.8514 102.881 99.0929 103.073C99.3343 103.265 99.6421 103.361 100.016 103.361ZM103.767 104V98.5455H104.577V99.3693H104.634C104.733 99.0994 104.913 98.8804 105.173 98.7124C105.434 98.5443 105.727 98.4602 106.054 98.4602C106.116 98.4602 106.192 98.4614 106.285 98.4638C106.377 98.4661 106.447 98.4697 106.494 98.4744V99.3267C106.466 99.3196 106.401 99.3089 106.299 99.2947C106.2 99.2782 106.094 99.2699 105.983 99.2699C105.718 99.2699 105.481 99.3255 105.273 99.4368C105.067 99.5457 104.903 99.6972 104.783 99.8913C104.664 100.083 104.605 100.302 104.605 100.548V104H103.767Z" fill="#08190E"/>
</svg>
